<?xml version='1.0' encoding='utf-8'?>
<svg xmlns="http://www.w3.org/2000/svg" version="1.1" width="600px" height="976px" viewBox="0 0 600 976"> <g id="layer1"> <g style="fill:rgb(0,0,0); fill-opacity:1.0; stroke-linejoin: miter"> <path d="M151.96661,436.62326C153.23547,437.01254,156.7492,437.666,159.80121,438.1519C163.02524,438.57828,166.71445,439.51743,168.5635,440.41812C170.35379,441.20444,172.258,441.87454,172.83286,441.86856C173.46518,441.86203,174.21545,442.1418,174.564,442.48306C174.91243,442.82437,176.87585,443.66647,178.8381,444.39352C188.93497,447.8533,196.80779,453.06082,199.44585,457.97775C199.9728,458.89212,200.73143,459.9766,201.13853,460.43234C202.24153,461.45566,202.21925,464.84793,201.13829,465.95157C200.05681,466.9976,200.06575,467.8599,201.16927,468.94083C202.68001,470.4773,203.46904,474.4936,203.60216,481.79364C203.66533,487.88702,203.91081,489.37927,204.96812,491.55298C206.08424,493.84106,206.14586,494.24286,205.41286,495.6303C205.01935,496.49664,204.39548,497.3081,204.05176,497.4265C203.59302,497.5462,203.59897,498.12122,204.07141,499.32355C204.66171,500.8122,204.60782,501.1577,203.58145,501.9732C202.32745,503.02106,202.05261,504.23126,202.92377,505.0846C203.21478,505.42645,204.79547,508.16974,206.43665,511.19983C210.36394,518.46045,210.38121,520.1275,206.96603,523.4399C205.54257,524.7771,204.01254,526.9201,203.50882,528.2476C202.94778,529.57574,202.21179,530.67566,201.80936,530.6799C201.40701,530.684,200.78357,531.55286,200.39127,532.53436C199.99963,533.5732,199.2092,534.96124,198.6409,535.59955C197.448,536.9917,197.23233,538.3736,197.837,541.24194C198.19745,542.733,198.0405,544.22943,197.42838,546.19055C196.8714,547.921,196.55865,551.0287,196.58905,553.96045C196.61945,556.8922,196.41031,558.9066,196.06543,558.9102C195.72055,558.9138,195.49414,559.2611,195.49832,559.6635C195.50308,560.12335,194.99411,560.9335,194.36768,561.51495C193.22873,562.5615,189.95918,563.2853,178.76631,565.0111C175.55186,565.5044,173.37343,566.1018,172.80513,566.7402C171.83736,567.67004,171.89668,567.8419,172.9529,569.90063C174.1851,572.30255,174.88441,573.2152,175.98732,574.2385C176.45146,574.63617,177.4376,575.48834,178.2502,576.22736C179.06273,576.9663,181.83458,578.14484,184.37218,578.92334C191.40746,580.9776,199.88586,583.59186,201.21396,584.153C207.91199,586.9582,222.16093,591.6397,223.7119,591.5086C225.4352,591.37573,229.183,592.42926,229.18956,593.06165C229.19313,593.40656,229.54048,593.63293,230.00035,593.6282C232.52971,593.6019,240.22922,604.273,240.26617,607.83704C240.2727,608.46936,240.68579,609.49994,241.20975,610.12695C242.19885,611.26654,245.85535,620.1398,246.51807,623.065C246.70004,623.983,247.93701,626.8447,249.17053,629.3616C250.40448,631.9358,251.46484,634.3969,251.4708,634.97174C251.48572,636.40894,253.03543,636.1629,254.62714,634.42163C255.76428,633.2025,256.6236,632.90607,259.89786,632.6422C262.138,632.4465,264.20212,631.90765,264.71475,631.4425C265.4555,630.80237,265.97226,630.7395,267.24167,631.1863C268.62674,631.68933,269.08472,631.5121,271.3082,629.7069C272.676,628.5429,273.81314,627.3238,273.81018,627.0364C273.8072,626.7489,274.25992,626.0543,274.77133,625.47406C275.34088,624.9508,277.3829,622.285,279.3094,619.5629C281.29333,616.8402,284.01395,613.07513,285.43137,611.1632C286.84875,609.2513,289.05795,606.0663,290.41733,604.09753C291.71924,602.1293,293.75705,599.0612,295.00388,597.3235L297.21304,594.1385L295.58377,592.2582C294.18747,590.6629,294.00903,590.08984,294.2726,587.7875C295.1161,580.41974,299.92603,573.0111,307.68747,567.469C314.6488,562.3951,320.27518,561.64685,326.97745,564.8544C337.9538,569.9722,340.46542,579.3174,334.45337,592.77515C333.4988,594.9698,332.82864,596.8739,332.9448,596.98773C333.23514,597.27216,339.75867,594.32996,343.58875,592.2205C350.7907,588.1789,358.68613,584.47516,364.4713,582.40295L369.05344,580.74567L369.4853,578.0391C370.13464,574.1229,368.91315,572.7558,363.31796,570.9741C360.89526,570.19434,358.75937,569.35406,358.527,569.1265C358.29468,568.8989,356.85577,568.7414,355.3037,568.7575C349.0378,568.8225,346.4241,566.2625,346.5921,560.2816C346.89343,544.9858,347.6747,548.2547,340.57242,534.1854C339.045,531.0392,337.75052,528.1781,337.74634,527.77563C337.74216,527.3732,337.09494,525.94275,336.2765,524.62885C334.403,521.3714,334.44498,519.87616,336.47803,516.3481C339.97952,510.2751,340.08914,509.7566,338.80066,507.47028C338.15637,506.32715,337.44864,504.60968,337.26663,503.6917C337.0266,502.7168,336.14642,501.00122,335.32977,499.85992C334.1628,498.20477,333.98196,497.40173,334.2533,495.84656C334.47253,494.8095,334.8631,493.6557,335.09,493.3659C335.9978,492.20673,339.57678,482.511,339.56427,481.30377C339.54343,479.29187,345.06964,468.88605,348.07828,465.1754C349.61127,463.3197,350.85504,461.29474,350.84967,460.7774C350.84372,460.2025,350.14316,459.1748,349.3301,458.37842C348.2271,457.35498,347.93195,456.61066,348.15057,455.5161C348.31348,454.59448,347.9525,453.04596,347.3052,451.61542C345.89697,448.87042,345.69293,445.8256,346.95764,445.81247C347.36,445.80832,347.98755,445.34183,348.26962,444.8215C348.72174,444.06943,349.58228,443.88803,352.16965,443.91873C354.06732,443.95645,357.62662,443.4597,360.14948,442.80106C362.67227,442.1425,365.42615,441.59653,366.23096,441.58817C367.0357,441.5798,367.89624,441.3984,368.12375,441.16617C368.29385,440.93448,368.8088,440.69913,369.21066,440.63742C369.61246,440.57574,371.679,440.2669,373.91733,439.8988C385.51083,437.99634,389.8785,437.83606,399.3186,438.9455C410.8305,440.26343,417.75494,442.7212,422.63025,447.15497C423.90683,448.29163,425.58823,449.65393,426.51395,450.2193C427.38156,450.72766,429.12518,452.54938,430.40656,454.14587C431.68854,455.79987,433.72375,458.02087,434.88477,459.10114C437.26492,461.31866,439.21198,466.1278,440.0758,471.81042C440.75226,476.05786,441.83344,480.53094,442.4196,481.6172C443.4746,483.56085,443.2477,494.94653,442.09592,500.3051C440.99625,505.14587,440.4015,508.7741,438.8584,520.7482C438.16586,526.0447,436.7344,532.1536,434.7258,538.03845C433.55435,541.5002,432.7344,545.5906,431.99338,551.7498C431.7298,554.05225,431.84772,554.33844,434.46143,556.8985C436.029,558.37695,438.12643,561.0574,439.23715,562.82806C440.34787,564.59875,443.08365,567.8474,445.3488,570.0661C449.8797,574.561,451.0964,575.4682,453.22992,576.0785C454.90234,576.57855,462.992,580.5191,475.4756,586.82874C484.08734,591.22375,484.14484,591.22314,488.74487,591.29047C493.05682,591.3032,494.26697,591.5781,498.37167,593.7778C498.94952,594.0592,499.8142,594.2803,500.27405,594.27545C501.3088,594.2648,507.77933,597.3021,511.2505,599.3934C512.5235,600.18506,514.71924,601.2546,516.16174,601.7571C518.81683,602.76434,522.70233,606.0011,525.90515,609.9349C528.4098,613.0709,532.45856,620.9628,533.82776,625.4905C537.69775,638.32825,538.1904,641.4851,538.91846,656.25287C539.34143,663.77997,539.65393,666.19135,540.8405,669.74347C541.6698,672.0921,542.6792,675.1861,543.0965,676.61914C543.5138,678.052,544.3424,680.3431,544.8741,681.7174C545.9386,684.58093,546.24664,692.10913,545.4088,694.4749C544.9614,695.6869,545.0243,696.2037,545.7793,696.9433C546.8823,697.9667,546.90436,700.0936,546.3629,714.41455C546.0457,722.63916,546.10803,723.09845,547.98505,726.701C548.27844,727.2729,549.6843,729.78784,551.0896,732.2455C555.89215,740.7618,557.34863,748.1631,556.3691,759.0391C555.69507,766.1176,554.5883,770.26843,552.60315,772.87604C551.9234,773.86053,551.3024,774.9593,551.3054,775.2467C551.31555,776.224,545.90985,781.6267,544.42,782.10205C543.1595,782.5176,539.9067,784.85095,537.4012,787.17664C536.77484,787.75806,535.6873,788.22925,534.99756,788.2364C534.25024,788.24414,532.9885,788.54474,532.0723,788.8991C528.00757,790.551,522.09906,791.81964,518.24756,791.8595C515.8906,791.884,514.11096,792.13245,514.11456,792.4773C514.12354,793.33954,509.69534,793.21295,509.34152,792.3543C509.1056,791.7818,508.99066,791.783,508.99664,792.3579C508.9433,792.7608,508.54446,793.11,508.0846,793.11475C507.5672,793.1201,506.9414,793.759,506.6629,794.62427C505.99158,796.4134,505.15082,809.58765,505.12762,818.4416C505.10266,827.123,506.70276,837.28235,508.57092,840.0226C509.0385,840.7652,509.4522,841.8532,509.45877,842.48553C509.46533,843.11786,509.75867,843.68976,510.0473,843.8017C511.02753,844.079,511.89014,849.6468,512.5005,858.6091C512.77814,863.2055,513.2845,867.6845,513.697,868.65753C514.643,871.17737,516.18024,880.82007,516.21893,884.5565L516.25354,887.89075L413.92984,888.9516L311.60623,890.01263L311.58954,888.403C311.56808,886.33356,310.43655,882.55084,309.8617,882.5568C308.71204,882.5688,304.21295,886.6972,303.54047,888.3713L302.81104,890.1037L291.02536,890.1109L279.1816,890.0612L278.70386,888.3415C278.4063,887.3671,278.07474,883.116,277.9732,878.86285C277.76883,870.24115,278.26297,867.99396,281.70935,862.15155C284.42093,857.5241,290.28235,851.7143,292.23682,851.69403C292.4668,851.6916,293.14355,850.41974,293.6442,848.8049C294.14545,847.24725,294.82037,845.80304,295.10605,845.6276C295.39102,845.3947,295.61444,844.75995,295.6073,844.07025C295.60077,843.43787,295.93195,842.1122,296.38177,841.1302C296.77338,840.09125,297.44653,838.47455,297.83942,837.5506C298.23163,836.56915,298.70615,832.4249,298.8937,828.341C299.1305,823.45184,299.49954,820.22845,300.12042,819.1296C300.908,817.4543,301.33987,814.74774,301.08313,812.1632C301.076,811.47345,300.25388,809.81476,299.2623,808.44525C297.7451,806.2763,297.50626,805.4164,297.4693,801.85223C297.41568,796.67865,298.69925,787.4092,300.4625,780.032C302.7786,770.52185,302.9415,769.60034,303.32004,756.2009C303.70865,743.77875,304.01428,739.9812,305.5759,729.78906C305.95148,727.19806,306.10187,725.06934,305.81436,725.0723C305.58447,725.0747,304.90173,725.77167,304.33533,726.58246C303.7694,727.4507,302.80463,728.66797,302.12192,729.36487C301.49615,730.0039,299.28226,732.7289,297.23898,735.27966C295.1963,737.8879,293.0393,740.5549,292.47043,741.1357C290.82126,742.8775,288.8348,745.37024,288.8378,745.65765C288.839,745.77264,288.27188,746.5259,287.53232,747.28094C285.88373,749.08026,283.04355,752.3868,282.1937,753.6029C281.56918,754.35675,281.6356,755.21844,282.2989,758.2011C284.10037,765.5988,285.24002,786.80133,284.138,791.4121C283.8619,792.5073,283.09586,796.2522,282.44235,799.7659C281.73508,803.6252,280.73422,806.9126,279.94315,808.24316C279.20834,809.45807,278.58978,810.78674,278.59393,811.1891C278.59872,811.6489,277.80878,813.0945,276.90213,814.3687C275.93857,815.7009,275.205,817.03094,275.20795,817.31824C275.21155,817.66327,274.1875,818.7087,272.99054,819.6984C271.73654,820.74634,270.65744,822.0223,270.4909,822.5989C270.16092,824.0396,266.0902,825.11664,262.98123,824.68896C259.23874,824.15283,256.2969,823.206,256.29034,822.57367C256.28677,822.2288,256.1706,822.11505,255.99991,822.28925C255.71545,822.57965,257.3638,826.29956,258.70853,828.4702C260.8713,831.89734,262.7579,836.41956,262.7758,838.1441C262.79248,839.7537,262.28528,840.73627,260.7504,842.41956C259.6132,843.6386,258.7095,845.20013,258.71667,845.88995C258.7292,847.0971,259.3529,851.805,260.64594,860.0704C261.62885,866.15424,262.22284,879.08356,261.8243,885.00934L261.4792,890.53217L169.61794,891.48456L77.814064,892.43634L77.378334,889.22125C76.93778,885.5463,76.56834,861.00146,76.9636,860.3074C77.133644,860.07556,77.00614,858.8696,76.64933,857.72363C76.17277,856.11865,76.2645,853.8756,76.95994,848.8666C77.43919,845.1824,78.03874,842.01404,78.20946,841.83984C78.437546,841.66504,78.925705,838.84283,79.2935,835.5046C79.66142,832.1662,80.14,828.4244,80.41429,827.1567C80.85155,824.9675,81.60271,819.78546,82.28209,813.22437C82.494125,811.49744,82.93968,810.11304,83.45537,809.93524C83.913376,809.75806,84.24998,808.9496,84.241005,808.0874C84.23264,807.28253,84.56205,805.78436,85.01182,804.8023C86.30363,801.8568,88.13688,795.6864,88.121376,794.1918C88.114235,793.5019,88.3375,792.8672,88.68247,792.8636C88.96989,792.8606,89.2526,792.39777,89.24662,791.8229C89.23057,790.27075,90.83445,784.1601,91.79197,782.2529C92.184845,781.329,92.57298,779.9452,92.56523,779.19794C92.55748,778.4505,93.06407,777.4105,93.691025,776.88654C94.31749,776.3052,94.82585,775.4375,94.82048,774.92017C94.81517,774.40283,95.4254,772.2693,96.15067,770.1346C97.43589,766.5569,97.43168,766.1545,96.65519,763.3454C96.058266,761.2244,95.91826,758.8113,96.112465,755.35974L96.46415,750.46936L94.72472,749.05C93.73924,748.2554,92.632614,746.8871,92.16319,745.9721C91.693214,744.99945,90.53043,743.74677,89.54661,743.1246C88.56272,742.5024,87.28263,741.02075,86.75266,739.8189C86.22282,738.6171,85.40673,737.5334,84.94506,737.36566C84.48278,737.1405,84.076225,736.7423,84.072075,736.33997C84.068474,735.99506,83.36852,735.0249,82.44048,734.2296C81.56982,733.4337,80.22985,731.72296,79.41125,730.4091C78.65026,729.0947,77.71917,728.012,77.31683,728.0162C76.97186,728.0198,75.98035,726.6502,75.158264,724.9915C74.33679,723.3902,72.70276,721.0501,71.59796,719.8542C70.43579,718.659,69.50354,717.4613,69.50055,717.1739C69.4928,716.4266,65.87446,711.23224,65.00684,710.7239C64.60206,710.49817,64.25239,710.0419,64.24946,709.75446C64.24647,709.467,63.427315,708.09576,62.493294,706.72565C61.50111,705.2986,60.740063,703.9842,60.738293,703.8117C60.735912,703.58185,60.211437,702.89734,59.57191,702.21405C58.932384,701.5307,58.40437,700.50134,58.398388,699.9266C58.392406,699.3517,58.2151,698.89355,57.927746,698.8965C57.697765,698.8989,56.822952,697.70074,56.059586,696.1563C55.239334,694.67017,54.420853,693.3563,54.189102,693.1863C53.957413,693.0162,52.892838,690.15265,51.88161,686.8861C50.454304,682.3016,49.906574,679.37524,49.627766,674.6638C49.47768,671.2734,49.104084,668.5177,48.81667,668.5207C48.529194,668.5236,48.27785,666.45654,48.251667,663.9272C48.22542,661.39777,47.96926,658.8709,47.675804,658.29895C45.037743,653.3821,44.973045,652.6929,45.001305,638.77966C45.025726,630.0408,45.305573,623.7713,45.79324,620.89166C46.228054,618.47253,46.601345,615.6516,46.590603,614.61694C46.57986,613.5821,47.026577,612.3127,47.65237,611.6738C48.22128,611.093,48.899197,609.9361,49.121365,609.1864C51.51162,601.2852,58.915424,594.5395,65.75087,593.95123C69.31258,593.68427,70.45698,593.155,70.78571,591.5993C70.89417,590.9659,71.44038,588.2006,71.8722,585.49396C73.06898,578.9276,74.953255,572.124,75.86341,571.1947C76.261604,570.78815,76.59882,570.03723,76.59406,569.5774C76.5893,569.1175,77.08753,567.27264,77.70142,565.484C78.313484,563.52295,78.959175,559.2619,79.26295,555.2919C79.511665,551.55237,79.99574,548.32794,80.280716,548.095C80.623856,547.91895,81.35567,546.4166,81.97188,544.85785C83.25892,541.4525,84.38831,539.48615,87.56275,535.14136C88.92402,533.34503,89.99714,531.4942,89.99299,531.09174C89.98823,530.6319,90.897835,529.64514,91.92481,528.8871C94.15119,527.36926,94.94111,525.9238,95.4239,522.5843C95.69288,520.7992,96.202515,520.0466,97.745056,519.1107L99.74457,517.88257L99.28729,512.59814C99.08502,509.7257,98.585266,505.87903,98.27991,504.15735C97.42981,499.79675,97.76155,487.4328,98.91872,482.5915C99.412796,480.34424,100.07228,477.4053,100.28792,476.02322C100.504105,474.69882,100.95033,473.37192,101.23537,473.13895C101.97731,472.61386,105.97468,464.46597,105.96516,463.54636C105.960396,463.0864,106.2981,462.39304,106.69636,461.98642C107.606636,461.05716,111.628426,455.26627,111.624275,454.86386C111.623116,454.74887,112.75849,453.35733,114.18012,451.84775C115.6023,450.39578,116.73658,448.88925,116.73365,448.6019C116.72706,447.9695,122.762634,442.3303,124.47821,441.4501C125.221375,441.03995,126.53644,440.3364,127.39337,439.8101C128.25085,439.34128,131.1712,438.21866,133.92218,437.38528C139.48157,435.71786,147.92891,435.3428,151.96661,436.62326 Z M355.08496,536.5647C355.08792,536.85205,355.3208,537.137,355.66577,537.1334C355.95313,537.13043,356.2376,536.8401,356.23465,536.55273C356.23105,536.20764,355.9412,535.9807,355.65384,535.9837C355.30887,535.9873,355.08136,536.2196,355.08496,536.5647 Z M309.11047,610.4578C306.77927,612.9541,303.99402,616.03,302.91495,617.30597C300.58725,620.14716,298.0882,623.1051,296.2121,625.13684C295.41568,625.94995,293.59882,628.1535,292.06573,630.0091L289.39908,633.42865L290.8559,635.3107C294.11862,639.47394,293.17828,643.0481,288.2602,645.5711C286.65894,646.3927,284.884,647.10095,284.42407,647.1057C283.73428,647.11285,283.73608,647.2854,284.2588,647.79736C285.01385,648.53687,285.30045,653.99567,284.55313,654.0034C284.2657,654.0064,283.7543,654.5866,283.35907,655.2806C282.7956,656.3787,282.1656,656.61523,279.80997,656.7546C278.20096,656.82886,276.7656,657.0162,276.65186,657.1324C276.48053,657.24915,276.66138,658.0521,277.01523,658.9108C278.4336,662.6331,277.50586,667.4144,274.88654,669.8562C274.20325,670.49567,273.693,671.1909,273.69598,671.4783C273.70255,672.11066,271.54016,674.26025,270.8503,674.2674C270.27545,674.2734,266.2149,676.3277,263.98727,677.7306C263.53036,678.02277,262.67227,678.4341,262.04172,678.61316C261.35425,678.85016,261.12912,679.31244,261.365,679.88495C262.01465,681.5455,264.12674,691.1821,264.14282,692.7342C264.2087,693.5384,264.6284,695.2013,265.10138,696.46124C265.6318,697.7205,266.22696,699.669,266.52573,700.7583C268.08173,706.66376,269.04318,710.6782,270.0041,714.6352C270.54703,717.1017,271.14276,719.1077,271.37274,719.10535C271.54517,719.1036,272.39725,718.1174,273.18958,716.9018C273.92496,715.74445,275.62744,713.5995,276.93478,712.1486C278.24197,710.6979,279.88937,708.78357,280.56967,707.85657C281.24942,706.87225,282.783,705.07416,283.92014,703.855C285.11426,702.5778,286.07956,701.41797,286.07715,701.188C286.07538,701.01556,287.15326,699.62463,288.5181,698.17316C289.82538,696.7223,292.15417,693.99603,293.74472,692.13983C296.12927,689.2406,300.5056,684.36584,304.3711,680.12897C304.94,679.54816,305.3933,678.91095,305.39154,678.7385C305.38913,678.5086,305.89932,677.8134,306.5246,677.11725C310.50558,672.9365,310.56134,672.7634,310.22736,668.2826C310.0886,665.98444,310.12524,663.9718,310.35336,663.79694C310.6396,663.67896,310.9702,662.2958,311.18466,660.79877C311.50275,658.2084,311.75375,654.6987,312.9058,632.72504C313.19824,627.66284,313.66324,622.5988,313.93933,621.5036C314.21542,620.4083,314.70715,617.93115,315.03305,616.0881C315.35825,614.18744,316.07935,611.6503,316.69916,610.43665L317.7681,608.18335L316.4406,607.6797C315.69034,607.39996,314.93768,606.8904,314.7047,606.60535C314.06107,605.5197,313.4904,605.92804,309.11047,610.4578 Z"/> </g> </g> </svg>