<?xml version='1.0' encoding='utf-8'?>
<svg xmlns="http://www.w3.org/2000/svg" version="1.1" width="600px" height="976px" viewBox="0 0 600 976"> <g id="layer1"> <g> <g style="fill:rgb(0,0,0); fill-opacity:1.0; stroke-linejoin: miter"> <path d="M244.278,189.27852C244.04607,189.41592,242.98431,189.59087,241.896,189.67938C240.8077,189.76784,239.3997,190.07748,238.76376,190.37679C238.0414,190.70274,237.06534,190.87964,236.26608,190.83212C234.18263,190.69687,233.92421,190.74791,233.91336,191.20491C233.90656,191.49062,233.61748,191.62668,233.0747,191.61385C232.61758,191.60301,232.0986,191.7908,231.89319,192.01459C231.68782,192.23837,231.31166,192.42961,231.0546,192.42346C230.79744,192.41739,230.33559,192.6065,230.04451,192.82826C229.7248,193.04933,229.23442,193.23776,228.94872,193.23093C228.66301,193.22417,228.34473,193.38814,228.25359,193.61469C228.16246,193.8412,227.72583,194.17386,227.32178,194.33577C225.96617,194.84676,225.21118,195.34325,224.70927,196.01738C224.44333,196.3827,224.0618,196.80241,223.85907,196.91197C223.65643,197.02148,223.47755,197.33163,223.47278,197.53159C223.46736,197.76012,223.26265,197.95538,223.0341,197.94998C222.80551,197.94452,222.60083,198.13979,222.5954,198.36832C222.58998,198.59686,222.38525,198.79218,222.15668,198.78671C221.92815,198.78133,221.72342,198.97652,221.718,199.20511C221.71259,199.4336,221.50786,199.6288,221.27931,199.62334C221.02219,199.61726,220.70049,199.92409,220.54814,200.32066C220.39581,200.71725,220.13126,201.0254,219.9884,201.02202C219.84558,201.01863,219.52315,201.35397,219.28447,201.77708C219.04506,202.2287,218.62814,202.93349,218.3595,203.41306C218.09155,203.86398,217.87192,204.68774,217.8597,205.20198C217.8475,205.71616,217.71829,206.34196,217.56871,206.62428C216.82193,207.97856,216.6601,208.77512,216.42224,211.57076C216.2245,213.88142,216.03273,214.73433,215.65186,215.12552C215.2424,215.51602,215.0806,216.31248,214.91951,218.2811C214.79926,219.736,214.56738,221.07391,214.39194,221.24129C213.97906,221.77463,213.65608,223.33908,213.55217,225.30891C213.49445,226.5367,213.36934,226.99101,213.11357,226.92783C212.91428,226.89449,212.22322,227.10672,211.55869,227.40541C210.89417,227.7041,210.23099,227.94566,210.08817,227.94221C209.71674,227.93346,207.8538,229.34697,207.84636,229.66125C207.84229,229.83264,207.39682,230.53673,206.83638,231.26654C206.27596,231.99652,205.71077,232.9264,205.6149,233.35289C205.49045,233.77863,205.2803,234.20247,205.13544,234.28484C204.99055,234.36708,204.86952,234.65009,204.86272,234.93579C204.85594,235.22136,204.64647,235.61662,204.41318,235.81119C204.17989,236.00575,203.96974,236.42953,203.96094,236.80098C203.9528,237.14378,203.85828,237.51305,203.74132,237.62462C203.59573,237.73557,203.35779,239.33067,203.14297,241.15494L202.778,244.49063L199.71913,244.50377C197.518,244.50873,196.62965,244.60194,196.62355,244.85905C196.61609,245.17334,195.94817,245.61482,194.881,246.01823C194.62187,246.0979,194.12328,246.6292,193.73903,247.16316C193.35477,247.69704,192.88748,248.11475,192.68752,248.11005C192.51608,248.10599,191.93117,248.66379,191.40068,249.3373C190.57295,250.48956,190.34169,250.59839,189.13977,250.65569C188.3385,250.6938,187.73386,250.87953,187.58493,251.13326C187.25504,251.7829,186.29274,253.78957,186.26004,253.96016C186.0003,255.269,185.6596,256.37558,185.33046,256.99667C185.09177,257.41977,184.87617,258.07217,184.86737,258.44345C184.85312,259.04343,184.76198,259.27,184.04381,260.6249C183.86427,260.9637,183.61946,261.64395,183.49228,262.18405C183.2026,263.54916,182.65111,265.10825,182.35796,265.41568C182.23964,265.58444,182.11519,266.01022,182.10568,266.4102C182.09554,266.83865,181.90854,267.49173,181.67047,267.88626C181.34131,268.50735,180.78844,270.1235,180.84084,270.32486C180.8395,270.382,180.60005,270.83365,180.3022,271.3411C180.00429,271.84854,179.63438,272.98306,179.49973,273.8375C179.36511,274.69186,179.02238,275.8842,178.7218,276.506C178.36067,277.26913,178.09755,278.72073,177.93108,280.91776C177.77408,282.7148,177.53612,284.3099,177.3899,284.44937C177.21445,284.61673,177.08728,285.15683,177.07573,285.6425C177.06352,286.15665,176.93773,286.63968,176.79288,286.72195C176.67656,286.80496,176.43793,288.42862,176.30746,290.31204C176.17702,292.19553,175.96494,293.90567,175.78877,294.10153C175.49496,294.43753,175.11485,296.0007,175.06458,296.91415C175.05779,297.19986,174.93672,297.48288,174.76332,297.56448C174.61774,297.67538,174.49329,298.10117,174.48245,298.5582C174.47226,298.98672,174.31929,299.4119,174.17506,299.46567C174.00232,299.5187,173.78539,300.22818,173.65147,301.054C173.54677,301.8519,173.33049,302.5328,173.21622,302.53006C173.0734,302.5267,172.95164,302.8381,172.94284,303.2095C172.93335,303.60947,172.81026,303.97824,172.66537,304.06052C172.54907,304.14352,172.32872,304.99576,172.19144,305.96445C172.08266,306.93362,171.8603,307.87167,171.71341,308.0397C171.44884,308.34793,171.05855,310.33957,171.03006,311.5394C171.02191,311.88223,170.87025,312.25027,170.7254,312.33255C170.55196,312.4142,170.42548,312.9258,170.4126,313.46848C170.39973,314.01132,170.27391,314.4943,170.12904,314.57657C169.98349,314.68747,169.76588,315.42545,169.63196,316.25125C169.52725,317.04922,169.30492,317.9871,169.1546,318.298C168.55069,319.65567,168.42488,320.13864,168.02443,322.5588C167.72256,324.43826,167.66486,325.66605,167.86018,327.07126C168.14809,329.3934,167.86691,335.218,167.46017,335.49417C167.05344,335.7703,166.35567,337.46884,166.18436,338.66537C166.0484,339.5768,165.7723,340.3707,165.1738,341.49973C165.05342,341.75418,164.84422,345.75107,164.70445,350.43558C164.48265,358.57687,164.5024,358.94894,165.03436,359.4189C165.3983,359.74197,165.58537,360.28952,165.5698,360.94662C165.5569,361.4894,165.73724,362.3226,165.95493,362.78513C166.17331,363.21915,166.357,363.90958,166.34886,364.2524C166.34074,364.59512,166.52444,365.2855,166.74281,365.7195C166.96048,366.18198,167.14082,367.01517,167.12794,367.558C167.11507,368.10086,167.3539,368.87827,167.65862,369.28568C167.99127,369.72232,168.2022,370.4706,168.18526,371.18472C168.17033,371.81326,168.35199,372.5894,168.57306,372.90903C168.79486,373.2001,168.97925,373.86197,168.96773,374.3477C168.95686,374.80472,169.14125,375.46646,169.36234,375.78622C169.5841,376.07736,169.77121,376.62485,169.76375,376.93912C169.75562,377.2819,169.94542,377.71524,170.1692,377.92062C170.39299,378.126,170.58078,378.645,170.57059,379.07358C170.55772,379.6163,170.72235,379.90604,171.1196,380.02982C171.51683,380.1536,171.68147,380.4434,171.66725,381.0433C171.65639,381.5004,171.84349,382.04788,172.06729,382.25327C172.29108,382.45877,172.48224,382.83487,172.47612,383.09195C172.47002,383.3491,172.65916,383.81094,172.88094,384.10205C173.10204,384.4217,173.28914,384.9693,173.281,385.31213C173.27286,385.6549,173.46266,386.0882,173.68646,386.29352C173.91026,386.49902,174.10007,386.9323,174.09193,387.27515C174.0838,387.61798,174.33075,388.0525,174.64026,388.25995C175.0062,388.4973,175.19601,388.9306,175.18315,389.4734C175.17093,389.9876,175.33218,390.42017,175.58727,390.51202C175.84166,390.6324,176.0029,391.065,175.98933,391.63635C175.97711,392.15063,176.16356,392.72668,176.38734,392.93207C176.61115,393.1375,176.80095,393.57086,176.7928,393.91364C176.78468,394.25653,177.03162,394.69098,177.36972,394.89917C177.76355,395.16577,177.89894,395.48334,177.80443,395.85278C177.7099,396.22217,177.84529,396.53986,178.18268,396.77643C178.46428,396.9546,178.7112,397.38922,178.7031,397.73212C178.69495,398.0749,178.88475,398.50818,179.10855,398.71362C179.33235,398.91895,179.5235,399.2951,179.51674,399.5808C179.50995,399.86652,179.70116,400.24255,179.92493,400.44806C180.14873,400.65344,180.33853,401.08667,180.33041,401.42944C180.32227,401.77228,180.56854,402.2356,180.8774,402.47156C181.21477,402.70825,181.43112,403.22778,181.42094,403.65637C181.4108,404.0849,181.59787,404.6325,181.82031,404.89502C182.07133,405.15826,182.22646,405.84796,182.20541,406.73352C182.1837,407.64764,182.31165,408.2796,182.59189,408.51495C182.87218,408.75024,183.00008,409.38214,182.97633,410.38202C182.9526,411.38196,183.08055,412.01385,183.36081,412.24915C183.64104,412.4845,183.76833,413.14496,183.74594,414.0877C183.72221,415.0876,183.87733,415.77734,184.26578,416.2724C184.79227,416.97095,184.80733,417.54303,184.46217,432.0843C184.26556,440.3692,183.98517,447.36566,183.83556,447.64795C183.6866,447.90167,183.4166,448.43835,183.2357,448.83423C183.02419,449.3152,182.80415,453.7691,182.55107,462.02405C182.26817,471.5359,182.08131,474.59003,181.81743,474.86963C181.52567,475.12,181.39381,477.0605,181.26363,482.5456C181.11719,488.71643,181.14519,489.94623,181.5098,490.24072C181.73357,490.4461,181.92476,490.8222,181.91794,491.10785C181.91187,491.365,182.15813,491.8282,182.4656,492.12134C182.77309,492.4145,183.02002,492.84912,183.01392,493.10626C183.0085,493.33478,183.79224,495.24,184.74332,497.32062C185.7236,499.37335,186.58966,501.4234,186.66518,501.85394C186.76863,502.31378,186.93188,502.6607,187.04616,502.6634C187.13185,502.66547,187.3795,503.07153,187.5965,503.56256C187.8938,504.28424,187.88635,504.5985,187.61974,504.99237C187.44157,505.274,187.27904,506.099,187.26279,506.78467C187.24582,507.4989,187.11595,508.15326,186.94252,508.23486C186.7684,508.34503,186.6107,510.17078,186.52115,512.7412C186.4642,515.141,186.25827,517.79443,186.0951,518.64813C185.90335,519.5011,185.6742,520.72473,185.57361,521.3512C185.47298,521.9777,185.25674,522.65857,185.10912,522.8551C184.93364,523.0225,184.70248,524.3319,184.58423,525.7012C184.42046,527.78394,184.46605,528.27094,184.85857,528.5947C185.47487,529.12384,186.17407,528.5688,186.19914,527.5117C186.20932,527.0832,186.48001,526.51794,186.80103,526.2397C187.12209,525.9615,187.39273,525.3962,187.40291,524.9677C187.41309,524.53925,187.62527,524.0297,187.85857,523.8351C188.09186,523.64056,188.30608,523.0454,188.31894,522.50256C188.33318,521.90265,188.51479,521.4782,188.77394,521.39856C189.00516,521.28973,189.21465,520.8946,189.22551,520.43744C189.23566,520.0089,189.44785,519.49945,189.68114,519.3049C189.91446,519.11035,190.1266,518.60077,190.13678,518.1723C190.14697,517.7438,190.42035,517.0642,190.7441,516.67175C191.15556,516.19556,191.3426,515.54254,191.36632,514.5427C191.388,513.6285,191.54579,513.00336,191.83688,512.7816C192.128,512.5599,192.28642,511.9062,192.31218,510.82056C192.37535,509.36432,192.40594,509.2793,192.76584,509.77374C193.06987,510.20966,193.1618,511.1552,193.11229,513.2406C193.0682,515.09753,193.15538,516.24304,193.3785,516.477C193.60164,516.711,193.69359,518.85706,193.67014,523.4585C193.64049,527.11664,193.73798,530.2346,193.87744,530.38086C194.01622,530.55566,194.11761,531.1012,194.10608,531.5869C194.0939,532.1011,194.22453,532.6187,194.36534,532.7078C194.53406,532.8261,194.60692,534.5715,194.55066,536.9426C194.51007,539.8573,194.56526,541.1449,194.84279,541.4945C195.17477,541.9598,195.77338,542.0312,200.11572,542.13416L205.02948,542.2508L206.75664,544.14984C207.70425,545.1727,208.65117,546.2243,208.8457,546.45764C209.03961,546.7195,209.15804,547.7513,209.12811,549.0082C209.0915,550.55096,209.18951,551.23926,209.49765,551.5037C209.80583,551.7683,209.90315,552.4852,209.85841,554.3708C209.81772,556.08484,209.93544,557.1453,210.23415,557.80975C210.53348,558.44574,210.6784,559.56396,210.66968,561.1359C210.65483,562.96497,210.75285,563.65326,211.14197,564.1199C211.39163,564.4402,211.60457,565.1027,211.59373,565.5599C211.5815,566.07404,211.74275,566.50665,211.99783,566.59845C212.22366,566.71814,212.41481,567.0943,212.40599,567.4657C212.39584,567.8942,212.56116,568.1554,212.81825,568.1615C213.04681,568.1669,213.24136,568.4002,213.23392,568.7145C213.22713,569.0001,213.41695,569.4335,213.66931,569.6395C213.92166,569.8456,214.22575,570.2816,214.36044,570.62775C214.79587,571.55286,215.34416,572.5377,215.67885,572.8886C215.8462,573.0641,215.98021,573.4389,215.97343,573.7246C215.96663,574.0103,216.1612,574.2436,216.38972,574.24896C216.64688,574.2551,216.81221,574.51624,216.80272,574.91626C216.79456,575.259,217.04015,575.75085,217.34898,575.9868C217.6578,576.22284,217.90474,576.6575,217.89798,576.94305C217.89188,577.20026,218.08437,577.5192,218.3109,577.61035C218.5367,577.73004,218.72923,578.0491,218.72246,578.3348C218.71501,578.649,218.90753,578.968,219.13403,579.0591C219.38843,579.1795,219.54967,579.61206,219.5388,580.0692C219.52594,580.61206,219.662,580.90106,219.94768,580.90784C220.23337,580.9146,220.36943,581.2037,220.35724,581.7179C220.34639,582.175,220.58923,582.78107,220.89674,583.0742C221.20421,583.3674,221.45116,583.80194,221.44574,584.0305C221.43353,584.54474,222.24648,586.42206,222.72063,586.91925C222.91586,587.1239,223.07709,587.55646,223.071,587.8136C223.0642,588.0993,223.25468,588.5041,223.44995,588.70874C223.67441,588.88556,224.00229,589.5223,224.18874,590.0983C224.34659,590.67377,224.58946,591.2798,224.72821,591.45465C224.86769,591.6009,224.97383,591.94635,224.96773,592.20355C224.96161,592.4606,225.15276,592.8368,225.3766,593.0421C225.60037,593.24756,225.79155,593.6238,225.78476,593.9093C225.77798,594.195,225.96916,594.57117,226.19293,594.7766C226.41678,594.982,226.60724,595.38666,226.60043,595.6724C226.59367,595.95807,226.81001,596.47766,227.06033,596.76953C227.31,597.0899,227.55626,597.5531,227.57939,597.7822C227.60254,598.0116,227.81688,598.6169,228.06242,599.10864C228.27946,599.59973,228.54208,600.5778,228.63939,601.29486C228.70885,601.9825,228.89323,602.6442,229.03404,602.7334C229.17482,602.8225,229.27898,603.2537,229.2681,603.7108C229.25795,604.1393,229.39063,604.5712,229.53209,604.63184C229.70215,604.693,229.88518,605.41187,229.9798,606.24316C230.0465,607.0451,230.23022,607.7354,230.3445,607.73816C230.48735,607.7415,230.59415,608.05853,230.58531,608.4299C230.57582,608.82996,230.68129,609.204,230.8221,609.2931C230.9629,609.38214,231.14049,610.32965,231.22969,611.38934C231.3182,612.47766,231.46655,613.45306,231.60533,613.62787C231.71622,613.77344,231.8619,614.8631,231.92044,616.0079C232.02194,617.754,231.95528,618.1525,231.51659,618.5709C231.22484,618.82117,230.92896,619.24304,230.80858,619.49744C230.625,620.0075,229.21768,620.2885,227.16077,620.23975C225.76091,620.20654,223.13612,621.20184,223.12254,621.77313C223.11781,621.9732,222.91377,622.13983,222.68523,622.1344C222.45667,622.129,222.25261,622.29565,222.24785,622.49567C222.24312,622.6956,221.85886,623.2296,221.36237,623.6752C220.89438,624.12134,220.48157,624.65466,220.47684,624.85474C220.47208,625.05475,220.26804,625.2214,220.03946,625.216C219.78238,625.2098,219.49055,625.4602,219.36885,625.7717C219.06554,626.5077,214.64731,630.8049,214.2188,630.7947C214.0188,630.79,213.55424,631.09326,213.17337,631.4845C212.7925,631.8757,212.32793,632.17896,212.12798,632.17426C211.92801,632.1695,211.08461,632.7784,210.20856,633.558C209.3618,634.3096,208.51768,634.9469,208.34628,634.9429C208.17484,634.9387,207.79735,635.187,207.5042,635.49457C207.21107,635.80206,206.80502,636.0496,206.57645,636.0442C206.37646,636.0394,206.20035,636.2354,206.19421,636.4925C206.18811,636.7496,205.92488,637.0006,205.60863,637.07886C205.29234,637.15704,205.02911,637.4081,205.02435,637.6081C205.01894,637.8366,204.81488,638.00336,204.58635,637.9979C204.3578,637.9925,204.15309,638.1877,204.14767,638.41626C204.14226,638.6448,203.99464,638.8414,203.8518,638.83795C203.50899,638.82983,201.22714,641.0339,201.219,641.3768C201.2156,641.51965,201.07004,641.63043,200.92719,641.627C200.75578,641.62305,199.79335,642.42914,198.7976,643.43445C197.77332,644.4393,196.83951,645.24603,196.66808,645.242C196.52525,645.2386,195.4166,646.1841,194.21681,647.35614C193.01703,648.52826,191.73428,649.58405,191.38809,649.71875C191.01329,649.8527,190.72083,650.13165,190.7147,650.38885C190.70929,650.61725,190.50458,650.81256,190.27605,650.8071C190.04749,650.80164,189.84276,650.99695,189.83734,651.2255C189.83192,651.45404,189.62718,651.6492,189.39864,651.6438C189.17009,651.6384,188.96536,651.8337,188.95995,652.0622C188.95453,652.2908,188.80695,652.4874,188.63551,652.4833C188.34984,652.4765,187.79825,652.8349,186.138,654.13904C185.93394,654.3058,185.64552,654.4132,185.47412,654.40924C185.33127,654.4058,185.18367,654.60236,185.17825,654.8309C185.1728,655.0594,184.96812,655.25464,184.73956,655.24927C184.51103,655.2439,184.30696,655.41046,184.30154,655.63904C184.29681,655.83905,184.03358,656.08997,183.7173,656.1683C183.40102,656.2465,183.13779,656.49756,183.13237,656.726C183.12695,656.95465,182.8059,657.2328,182.40393,657.3091C181.57071,657.4893,180.98781,657.9615,178.06656,660.6077C176.92734,661.6383,175.87851,662.47095,175.73569,662.4675C175.16432,662.454,171.78122,665.2892,171.76901,665.80347C171.76561,665.9463,171.56226,666.0844,171.33372,666.07904C171.10518,666.0736,170.90248,666.18304,170.89842,666.3545C170.895,666.4974,170.72023,666.6361,170.52025,666.6314C170.2917,666.6259,169.82715,666.9294,169.44627,667.32043C169.0654,667.7117,168.62943,668.01575,168.48657,668.0123C168.34373,668.009,167.46973,668.70276,166.59233,669.5394C165.68639,670.37555,164.84094,671.0701,164.64096,671.06537C164.46956,671.0613,164.1492,671.3109,163.9125,671.6483C163.67584,671.98566,163.18138,672.3455,162.8066,672.4796C162.43181,672.6136,162.2264,672.83746,162.30806,673.0109C162.39035,673.1558,162.30125,673.2965,162.10129,673.2918C161.87274,673.28644,161.11644,673.84015,160.41382,674.5381C159.71121,675.236,158.98344,675.7904,158.81203,675.7864C158.6692,675.783,157.47482,676.7265,156.19003,677.868C154.67125,679.23254,153.13138,680.2821,151.80165,680.908C150.6746,681.4245,149.51491,682.1115,149.22179,682.419C148.75247,682.9224,148.3226,682.96936,145.18008,682.8948C143.15173,682.8466,141.61176,682.69574,141.50156,682.5216C141.41992,682.34814,140.90839,682.22174,140.36562,682.2088C139.82281,682.1959,139.31195,682.0409,139.22964,681.896C138.95549,681.40356,138.20863,681.55743,137.24828,682.2778C136.75311,682.66626,136.20015,683.08185,136.02603,683.192C135.09692,683.79877,134.54669,684.10016,134.11476,684.23285C133.82635,684.3404,133.5917,684.5921,133.58698,684.79205C133.58154,685.02057,133.46321,685.18933,133.2918,685.1852C133.1204,685.1812,132.77213,685.40155,132.47966,685.6804C131.63152,686.4893,129.68423,687.8437,129.13669,688.0308C128.8483,688.13824,128.7007,688.33484,128.78235,688.5083C128.86395,688.6817,128.7164,688.87836,128.42798,688.9858C127.70769,689.226,126.28409,690.1926,125.58153,690.8906C125.259125,691.22595,124.765335,691.5573,124.50618,691.63684C124.21779,691.7443,123.98312,691.9961,123.97771,692.2246C123.97296,692.4245,123.73833,692.67633,123.478485,692.7844C122.6725,693.0226,121.946075,693.51984,119.78862,695.2981C117.74817,696.96466,116.96324,697.51776,116.07019,697.8109C115.78247,697.88983,115.547134,698.17017,115.54239,698.3702C115.53697,698.59863,115.33292,698.7653,115.10437,698.75995C114.875824,698.7545,114.67111,698.9497,114.66502,699.20685C114.658905,699.4639,114.395676,699.7149,114.10797,699.79395C113.79167,699.87213,113.46794,700.26465,113.34416,700.66187C113.21973,701.0877,113.03883,701.48364,112.922516,701.5666C112.51579,701.84283,110.8345,704.03253,110.8284,704.2896C110.82501,704.4325,110.35298,705.05005,109.79527,705.66565C109.238235,706.25275,108.40918,707.46216,107.98889,708.30975C107.54002,709.1566,107.08913,710.08923,106.940186,710.3429C106.79056,710.6253,106.640335,712.13666,106.60306,713.70795C106.54747,716.05054,106.44954,716.56274,106.10672,716.55457C105.821045,716.5478,105.67142,716.83,105.658554,717.3729C105.64769,717.83,105.4355,718.3395,105.20221,718.53394C104.96892,718.72864,104.759445,719.1238,104.75267,719.4094C104.74588,719.6952,104.62483,719.9781,104.47928,720.08905C104.33441,720.17126,104.12358,720.62366,103.998474,721.07806C103.872665,721.561,103.69243,721.9283,103.60672,721.92633C103.12106,721.91473,102.65187,723.61865,102.606445,725.5328C102.56305,727.3611,102.84813,728.597,103.408646,729.0676C103.520905,729.1561,103.673996,729.9315,103.767944,730.79126C103.86186,731.65094,104.0966,732.5999,104.260574,732.91815C104.69934,733.7005,105.47958,734.54785,105.82242,734.55597C105.99382,734.56006,106.10402,734.73413,106.09929,734.93414C106.08844,735.39124,108.0972,737.4684,108.55429,737.4793C108.75427,737.4841,108.89238,737.6874,108.88696,737.916C108.880844,738.17303,109.13388,738.3506,109.53383,738.36005C110.50516,738.383,110.84807,739.5917,110.95924,743.33887C111.000854,745.1978,111.16356,746.7738,111.30437,746.8629C111.41661,746.95135,111.50984,747.8397,111.48543,748.8681C111.4617,749.868,111.55632,750.6992,111.69917,750.70264C111.842026,750.706,111.97409,752.367,111.983765,754.36816C111.98607,757.88416,112.00989,758.0847,112.758865,759.04584C113.174515,759.5988,113.61873,760.1525,113.72893,760.3266C113.95068,760.6177,114.41261,761.6291,114.4344,761.9154C114.46092,762.00183,114.84665,762.6113,115.28952,763.222C116.17453,764.47217,116.53238,765.05237,117.3011,766.3855C118.01402,767.66016,119.60039,769.47003,120.000336,769.4795C120.20032,769.4842,120.42413,769.68964,120.532974,769.92096C120.613235,770.1515,120.951324,770.3597,121.26558,770.367C121.60838,770.3752,122.14508,770.6452,122.48047,770.9676C122.81583,771.29,123.23959,771.5002,123.41237,771.447C123.61438,771.3661,123.98102,771.5749,124.25923,771.89594C124.50957,772.18774,124.90343,772.45435,125.07483,772.45844C125.27481,772.4632,125.49861,772.6685,125.60747,772.89984C125.68773,773.13043,126.05437,773.3392,126.425766,773.348C126.82573,773.3575,127.27809,773.5683,127.47261,773.8016C127.66719,774.0349,128.03381,774.2437,128.29095,774.2498C128.54805,774.2558,128.97046,774.5232,129.2487,774.8442C129.49835,775.1645,129.94934,775.4325,130.26358,775.44C130.54926,775.4467,130.85878,775.6542,130.96765,775.8855C131.0479,776.116,131.35742,776.32355,131.6431,776.3303C131.95737,776.33765,132.35257,776.54724,132.54713,776.78046C132.74165,777.0138,133.25114,777.22595,133.67964,777.23615C134.1082,777.2463,134.61768,777.4585,134.81223,777.6918C135.00679,777.92505,135.63054,778.1399,136.20192,778.1535C136.91612,778.1705,137.34059,778.35205,137.58818,778.7582C137.78003,779.10565,138.23172,779.3451,138.71736,779.3566C139.14589,779.36676,139.85536,779.5837,140.30702,779.82306C140.73012,780.0618,141.46815,780.27936,141.89667,780.2896C142.35378,780.3004,142.74898,780.5099,142.85783,780.74115C142.93742,781.0003,143.3619,781.1818,143.99039,781.19684C144.5332,781.20966,145.07329,781.33685,145.15492,781.5103C145.37395,781.9157,158.05832,782.2167,158.29631,781.8222C158.38542,781.68134,158.8459,781.5494,159.27441,781.5596C159.73152,781.5704,160.25047,781.38257,160.45589,781.1589C160.66129,780.935,161.18028,780.74725,161.60881,780.75745C162.03734,780.76764,162.55629,780.57983,162.7617,780.356C162.9671,780.1322,163.2861,779.9397,163.45752,779.9437C163.74318,779.95056,164.81775,778.0323,164.83131,777.46094C164.84149,777.0324,165.58757,775.7066,165.8161,775.7121C166.24463,775.7223,166.00787,774.85913,165.47319,774.5034C165.16371,774.29596,164.91402,773.97565,164.91809,773.8042C164.92216,773.63275,164.58951,773.1961,164.19905,772.7866C163.8079,772.4058,163.36436,771.82355,163.22899,771.5059C163.09361,771.18835,162.87593,770.7257,162.7385,770.49384C162.60109,770.2619,162.32962,769.6553,162.1405,769.1933C161.92351,768.7022,161.4847,767.9201,161.15338,767.4263C160.79353,766.9318,160.52075,766.3822,160.52483,766.2109C160.52959,766.01086,160.33298,765.8632,160.10442,765.85785C159.87587,765.8524,159.68065,765.6477,159.68608,765.4191C159.6915,765.1906,159.41396,764.841,159.0752,764.66144C157.52359,763.79565,154.6706,759.95483,154.69838,758.78357C154.70381,758.555,154.51195,758.2074,154.28815,758.00195C154.06436,757.7966,153.87524,757.3347,153.88405,756.9634C153.89287,756.5919,153.65337,755.84314,153.35269,755.2642C153.05199,754.6854,152.81387,753.87946,152.82405,753.4509C152.83421,753.0224,152.65117,752.3034,152.43346,751.8409C152.2151,751.407,152.03545,750.54517,152.0497,749.9452C152.06393,749.3453,151.87888,748.71204,151.65508,748.50665C151.40273,748.30054,151.24622,747.66797,151.26114,747.0395C151.27606,746.41095,151.12227,745.6642,150.95833,745.3458C150.68349,744.88196,150.68892,744.6534,150.98544,744.2031C151.1643,743.89294,151.34862,743.3542,151.35674,743.01135C151.36555,742.63995,151.5784,742.1019,151.81374,741.82166C152.04974,741.51276,152.2626,740.9748,152.27074,740.63196C152.27818,740.3177,152.81345,739.4442,153.45891,738.745C154.10434,738.0457,154.63486,737.3723,154.63824,737.2294C154.64165,737.08655,154.96605,736.6655,155.37483,736.30365C155.78358,735.94165,156.10802,735.5206,156.1114,735.3778C156.11479,735.235,156.78949,734.5078,157.57915,733.75476C158.39735,733.0024,159.04347,732.27454,159.0462,732.16034C159.04958,732.0174,159.37332,731.62494,159.78212,731.26306C160.19087,730.90106,160.5153,730.4801,160.51869,730.3372C160.5248,730.0801,161.20084,729.2957,163.60652,726.6946C164.01663,726.2755,164.3424,725.79736,164.3458,725.6545C164.34988,725.48303,166.03812,725.4088,168.495,725.46716C171.06615,725.52814,172.64009,725.4512,172.64415,725.2797C172.64822,725.10834,173.10803,725.00494,173.65085,725.0177C174.19366,725.0306,174.65343,724.92725,174.65681,724.78436C174.66019,724.6416,175.0078,724.4497,175.43904,724.3456C175.86955,724.2701,176.56334,723.94354,176.97011,723.6673C177.37685,723.3911,178.07063,723.0646,178.50119,722.9891C178.90381,722.8843,179.3956,722.63873,179.601,722.41486C179.77783,722.19037,180.18187,722.0285,180.4961,722.0359C180.81038,722.0434,181.1307,721.79376,181.22388,721.48157C181.31839,721.1122,181.6374,720.9196,182.06593,720.9298C182.43732,720.9386,182.84135,720.77673,182.96036,720.57947C183.19838,720.185,185.07771,719.28625,185.62048,719.2992C185.79189,719.3032,185.93813,719.16376,185.94218,718.9924C185.94559,718.84955,186.32376,718.5726,186.78424,718.4406C187.24544,718.2801,187.70996,717.9767,187.80109,717.7502C187.89223,717.5236,188.21054,717.35974,188.49622,717.36646C188.81046,717.37384,189.21516,717.1834,189.42061,716.9596C189.62598,716.73584,190.03067,716.54535,190.34492,716.55286C190.6306,716.55963,191.4985,716.12286,192.22559,715.59705C192.98192,715.0433,193.7342,714.66095,193.9036,714.7507C194.07362,714.81195,194.39262,714.6193,194.57082,714.3377C194.7776,714.0568,195.18362,713.80914,195.49788,713.8167C195.84071,713.8248,196.15971,713.63226,196.25082,713.4058C196.37054,713.17993,196.74667,712.9888,197.11804,712.9975C197.48947,713.0065,197.80641,712.8996,197.8098,712.7568C197.8132,712.61395,198.16345,712.3078,198.6253,712.11865C200.12914,711.38257,200.85422,710.94244,201.0909,710.60516C201.20996,710.4079,201.55682,710.2446,201.84253,710.25146C202.12819,710.25824,202.53287,710.06775,202.73827,709.8439C202.94371,709.62006,203.31981,709.42896,203.60551,709.4357C203.89119,709.4425,204.2673,709.2514,204.47273,709.0275C204.67815,708.8037,204.99712,708.6112,205.1971,708.61597C205.3685,708.62,205.77455,708.37244,206.0677,708.0649C206.36084,707.75745,206.82405,707.51117,207.1383,707.5187C207.424,707.5254,207.65726,707.33093,207.66269,707.1024C207.6688,706.8452,207.92998,706.6798,208.35852,706.69006C208.72989,706.69885,209.19171,706.50977,209.39716,706.28595C209.60255,706.0622,209.95012,705.87036,210.15009,705.87506C210.37863,705.8805,210.55278,705.7703,210.55615,705.62744C210.55954,705.4846,211.02344,705.2097,211.57027,705.0512C212.11711,704.8927,212.58237,704.5607,212.5878,704.33215C212.59322,704.1037,212.82582,703.9376,213.14008,703.9451C213.42578,703.95197,213.83046,703.7614,214.03587,703.5376C214.24127,703.3138,214.61739,703.1227,214.90309,703.1294C215.18877,703.13617,215.5649,702.94507,215.77031,702.72125C215.97571,702.4975,216.29474,702.3049,216.4947,702.3097C216.6661,702.3137,217.07213,702.0661,217.36528,701.7586C217.6584,701.4512,217.97676,701.2872,218.11754,701.3763C218.25836,701.4654,218.57736,701.2729,218.87119,700.9368C219.16435,700.62933,219.59895,700.38245,219.85605,700.3886C220.11317,700.3946,220.48933,700.2035,220.69472,699.97974C220.9001,699.75586,221.21915,699.5633,221.4191,699.56805C221.61908,699.5729,221.93806,699.3803,222.14346,699.15656C222.34888,698.93274,222.75357,698.74225,223.06783,698.7497C223.38211,698.75714,223.70244,698.5075,223.79561,698.1953C223.88878,697.8831,224.18056,697.63275,224.43767,697.63885C224.92334,697.6504,225.99869,696.9042,227.77933,695.3457C228.2758,694.9,229.35316,694.06805,230.13876,693.48645C230.95221,692.9341,232.08946,691.9892,232.6744,691.43134C233.25932,690.8736,233.89864,690.4314,234.07007,690.4355C234.24147,690.4395,234.4462,690.2444,234.53732,690.0178C234.65704,689.792,234.86176,689.5968,235.00458,689.6002C235.14743,689.6036,235.72897,689.18854,236.2833,688.71576C236.83827,688.2144,237.41982,687.79956,237.53412,687.80225C237.67693,687.8056,238.40541,687.2226,239.16647,686.4689C239.92688,685.7438,240.65536,685.1607,240.82677,685.16486C240.96959,685.1682,241.52318,684.72394,242.05031,684.1934C242.60603,683.6635,243.15967,683.2193,243.30252,683.2227C243.44533,683.2261,243.9398,682.8663,244.40842,682.3914C244.87636,681.94507,245.37148,681.55664,245.51433,681.56C245.65718,681.5634,246.5883,680.87085,247.55208,680.0077C248.5444,679.14514,250.20331,677.89813,251.24945,677.17975C252.29483,676.49,253.19603,675.85394,253.28377,675.77026C253.81158,675.21106,256.78052,672.9663,256.98044,672.97107C257.12326,672.9745,257.6769,672.5302,258.2326,672.00037C258.7883,671.4704,259.37048,671.02686,259.5705,671.0316C259.7419,671.0357,259.97525,670.8411,260.09494,670.6153C260.1861,670.38885,260.39075,670.1936,260.56216,670.1976C260.73355,670.2018,261.43143,669.70374,262.07486,669.0901C262.74686,668.47723,263.44467,667.97925,263.61603,667.98334C263.7589,667.9867,264.51465,667.4616,265.27362,666.7935C267.25833,665.0684,267.8113,664.6528,268.0684,664.65894C268.2112,664.6623,268.6772,664.30176,269.1458,663.8269C269.61368,663.3807,270.1089,662.9923,270.25165,662.99567C270.79446,663.00854,279.48065,654.72516,279.52216,654.1831C279.52692,653.9831,279.7316,653.78784,279.96286,653.67896C280.19345,653.5987,280.40018,653.3178,280.4056,653.08923C280.4117,652.8321,280.7123,652.21045,281.09525,651.7336C281.47882,651.22815,282.04266,650.35547,282.34256,649.76227C282.67038,649.1983,283.02475,648.72076,283.13898,648.72345C283.28183,648.72687,283.37497,648.4147,283.3845,648.0147C283.39532,647.5576,283.57288,647.3046,283.82996,647.3107C284.08707,647.3168,284.2646,647.0637,284.27475,646.6352C284.28354,646.26385,284.49985,645.583,284.7386,645.1598C284.97797,644.7082,285.1942,644.0273,285.20374,643.6274C285.21387,643.1988,285.3383,642.7731,285.4845,642.6336C285.63144,642.4656,285.8477,641.7846,285.95035,641.0725C286.6329,636.4007,286.9566,634.80774,287.15652,634.8125C287.4994,634.82056,287.7184,625.593,287.3837,625.24207C287.2449,625.06726,287.07678,623.7198,287.05493,622.2329C287.00446,620.74536,286.9289,619.1142,286.85397,618.65515C286.38235,615.6425,286.18094,614.4943,285.95096,613.3455C285.7965,612.62726,285.70868,611.5104,285.6957,610.85266C285.71133,610.1955,285.61194,609.56433,285.4425,609.4746C285.30173,609.38544,285.17313,608.7821,285.18735,608.1822C285.20157,607.5823,285.10092,607.0082,284.9601,606.91907C284.81934,606.82996,284.65323,605.39685,284.57825,603.7372C284.50333,602.0775,284.36377,600.7307,284.221,600.7273C284.04956,600.72327,283.7099,596.97076,283.75125,595.228C283.75803,594.94226,283.6505,594.654,283.4811,594.56415C283.341,594.4466,283.25656,593.1868,283.29114,591.7298C283.3298,590.1014,283.242,588.9845,283.01883,588.75055C282.7957,588.51666,282.70712,586.2277,282.74075,581.19763C282.7778,577.2253,282.68646,573.85016,282.54767,573.67535C282.4082,573.5292,282.30685,572.98364,282.3184,572.4979C282.33054,571.98376,282.2285,571.4668,282.05914,571.3771C281.89038,571.2587,281.81955,569.4276,281.88196,566.7994C281.97412,562.91406,282.0468,562.2583,282.58212,561.38495C283.0582,560.5959,283.19006,559.8557,283.23755,557.85596C283.2972,555.3419,283.2972,555.3419,284.31818,554.48016C285.28195,553.6168,285.4254,553.5916,287.73944,553.6466C290.19632,553.70483,292.3274,554.24146,294.10345,555.28406C294.61093,555.58185,295.17688,555.82404,295.37686,555.82874C295.83398,555.8396,297.25568,557.3598,297.2455,557.78827C297.24072,557.9882,297.6272,558.5691,298.07202,559.0942C298.5455,559.62,298.89993,560.34296,298.89178,560.68585C298.88232,561.08575,299.0477,561.347,299.30478,561.353C299.53336,561.3585,299.72992,561.50604,299.72583,561.6774C299.72177,561.8489,300.16257,562.5453,300.68982,563.2153C301.21628,563.9139,301.65714,564.6103,301.65237,564.8103C301.64835,564.9817,301.8449,565.12933,302.07346,565.1347C302.302,565.14014,302.49725,565.34485,302.4918,565.5734C302.48642,565.80194,302.6816,566.00665,302.91016,566.0121C303.13873,566.0175,303.33392,566.2222,303.3285,566.45074C303.3224,566.7079,303.60132,567.0003,303.96933,567.15204C304.59167,567.4241,307.83914,570.3024,308.02832,570.7642C308.08206,570.90845,308.3086,570.9995,308.5371,571.00494C308.76563,571.0104,308.9323,571.2144,308.92685,571.443C308.92148,571.6715,309.05957,571.87494,309.231,571.87897C309.68805,571.88983,311.7248,573.9963,311.71457,574.4248C311.70984,574.6247,311.90573,574.8009,312.13428,574.80634C312.36288,574.8117,312.55807,575.01654,312.55267,575.245C312.54593,575.5307,312.82816,575.6803,313.39957,575.69385C313.91373,575.7061,314.3382,575.88776,314.41782,576.14685C314.5267,576.3781,314.80756,576.5849,315.09326,576.5917C315.35037,576.5978,315.80136,576.86566,316.07956,577.1867C316.3578,577.50775,316.80887,577.7757,317.06592,577.7818C317.3231,577.78796,317.6625,577.93884,317.85776,578.1436C318.27603,578.58234,318.26462,580.26855,317.85852,580.5162C317.7137,580.5985,317.5587,581.1093,317.54575,581.6521C317.5329,582.1949,317.4071,582.67786,317.26218,582.7602C317.14587,582.84326,316.92215,583.8383,316.78146,584.9498C316.66864,586.09045,316.44363,587.14276,316.2967,587.31085C315.85522,587.8434,315.39362,590.4336,315.07962,594.02783C314.9621,595.3685,314.76215,596.56433,314.61523,596.7323C314.49756,596.8724,314.24542,599.0675,314.09995,601.57935C313.8017,605.71704,313.73306,606.20135,313.14746,606.7877C312.6197,607.3468,312.4646,607.8577,312.3301,609.9126C312.24042,611.2826,312.06906,612.47906,311.89563,612.5607C311.7507,612.64307,311.54413,614.1244,311.4177,615.8365C311.29135,617.5486,311.08057,619.2015,310.93027,619.51227C310.357,620.7851,310.20944,622.1821,309.7572,631.6043C309.46725,637.80023,309.1784,641.53796,309.00293,641.7053C308.79822,641.90063,308.62558,644.35474,308.5239,648.64C308.3924,654.1822,308.30814,655.3236,307.92993,655.60046C307.69662,655.79504,307.48453,656.3045,307.4743,656.73303C307.46414,657.1616,307.19348,657.7268,306.87238,658.00507C306.5514,658.2833,306.28076,658.8485,306.27054,659.2771C306.26108,659.67706,306.04684,660.2722,305.81085,660.581C305.5755,660.8613,305.3633,661.37085,305.35516,661.7136C305.34772,662.02783,305.1356,662.5373,304.89954,662.8462C304.63428,663.18286,304.47113,664.03656,304.41608,665.1501C304.38968,666.2642,304.2591,666.9471,304.02924,666.99884C303.79865,667.07916,303.63614,667.90424,303.51855,669.24493C303.4309,670.5291,303.1433,671.80853,302.81277,672.48676C302.48227,673.1649,302.19324,674.5015,302.07562,675.8421C301.87247,678.3813,301.1896,679.4513,299.73267,679.41675C299.3041,679.40656,298.93002,679.512,298.92664,679.6549C298.91852,679.9977,297.27658,680.53046,296.8242,680.3196C296.62558,680.2577,296.193,680.41895,295.89917,680.75494C295.606,681.0625,295.0,681.3053,294.57144,681.2951C293.8001,681.2768,293.09683,682.0033,291.84747,684.0603C291.69855,684.314,291.46048,684.70856,291.31226,684.9337C291.19254,685.1596,291.01233,685.5269,290.9218,685.72485C290.46756,686.8003,289.9024,687.73016,289.37262,688.37506C289.16785,688.57025,288.3334,690.0082,287.4961,691.56055C286.65894,693.1128,285.85577,694.4372,285.73944,694.5202C285.5361,694.65826,285.08588,695.56226,285.16754,695.7357C285.16684,695.7643,284.89615,696.3296,284.53772,696.9785C284.20782,697.6281,283.89914,698.59265,283.88693,699.1069C283.8748,699.62115,283.70953,700.5605,283.52316,701.18494C283.33685,701.8093,283.11722,702.63306,283.02203,703.031C282.9554,703.4296,282.68137,704.1377,282.44055,704.64655C282.20047,705.1268,282.00943,705.95123,281.99652,706.4939C281.9836,707.03674,281.7042,707.9735,281.40356,708.59515C281.10367,709.1883,280.88263,710.0692,280.9004,710.527C280.94666,710.9854,280.84674,711.5833,280.69708,711.86566C280.5468,712.17645,280.27817,712.65607,280.1272,712.9955C279.7389,713.7008,279.25073,735.47064,279.61676,735.70795C279.75754,735.797,279.863,736.1712,279.8535,736.5711C279.83997,737.14246,279.98007,737.26013,280.63715,737.27576C281.0942,737.28656,281.68805,737.5579,281.96628,737.8789C282.32748,738.3162,282.83838,738.4713,283.8097,738.4944C284.5239,738.51135,285.37616,738.7317,285.685,738.9676C285.96524,739.20294,286.81757,739.42334,287.53174,739.4403C288.36026,739.45996,288.98468,739.64624,289.20715,739.9088C289.735,740.5502,304.6476,740.9041,305.20535,740.2886C305.41077,740.0647,305.8155,739.8742,306.12976,739.88165C306.4154,739.8885,306.73438,739.6959,306.82553,739.46936C307.09756,738.847,313.2969,738.99414,313.7962,739.6348C314.0737,739.9845,314.84305,740.0885,317.21426,740.1447C319.58536,740.201,320.3547,740.30505,320.6322,740.6546C320.82678,740.88794,321.3934,741.10144,321.90765,741.11365C322.42188,741.1259,322.98853,741.3394,323.18307,741.57275C323.37766,741.806,323.88705,742.0182,324.3156,742.0284C324.74408,742.0385,325.3094,742.3092,325.58768,742.6302C325.86584,742.95135,326.40256,743.2213,326.77393,743.23004C327.17386,743.2396,327.65482,743.45105,327.8779,743.68506C328.12964,743.9197,328.6677,744.13257,329.09616,744.1427C329.5533,744.15356,330.06277,744.3657,330.25735,744.59906C330.4519,744.83234,330.96136,745.04456,331.41846,745.05536C331.96127,745.06824,332.24353,745.2179,332.23676,745.5036C332.23065,745.7607,332.4837,745.93823,332.9408,745.949C333.31216,745.9578,334.07745,746.2333,334.64133,746.5611C335.2053,746.8889,335.9705,747.16437,336.34186,747.1731C336.79892,747.18396,337.05197,747.3616,337.0459,747.6186C337.03983,747.87573,337.29288,748.0533,337.72134,748.0634C338.09274,748.0722,338.77362,748.2885,339.19675,748.5272C339.87427,748.8862,341.52924,749.0113,348.52844,749.1774C356.6418,749.37,357.09827,749.40936,357.77094,749.96844C358.4444,750.4989,358.90015,750.56696,362.9575,750.63464C367.87192,750.7227,368.70242,750.6567,368.71674,750.05676C368.7242,749.7425,369.61182,749.67786,373.5828,749.7721C377.5252,749.86554,378.4414,749.8015,378.44885,749.4873C378.45364,749.28735,378.6883,749.03564,378.97665,748.9281C379.60992,748.7431,380.50912,748.19275,381.0655,747.6343C381.2994,747.4112,381.70682,747.10645,381.93744,747.0261C384.01672,746.1322,384.1065,745.96277,384.2512,743.4793C384.3878,741.3387,384.33737,741.05176,383.6714,740.20703C383.28363,739.6833,382.86798,739.1303,382.7578,738.95624C382.28912,738.23047,381.84897,737.50543,381.68698,737.10144C381.5782,736.8701,381.4414,736.60956,381.3292,736.5212C381.24554,736.4334,380.88568,735.93896,380.52582,735.44446C380.19516,734.9221,379.66257,734.4807,379.3483,734.47327C379.06265,734.4665,378.81024,734.26044,378.81567,734.03186C378.82114,733.80334,378.56873,733.5972,378.25452,733.5898C377.9117,733.5816,377.5144,733.4579,377.31854,733.28174C375.2173,731.4882,375.61453,731.612,371.2436,731.50836C367.95822,731.4303,367.0461,731.3229,366.48352,730.9379C365.94955,730.55365,365.09518,730.419,362.83832,730.36554C360.78137,730.31665,359.64206,730.1467,359.0775,729.8475C358.65433,729.6088,358.03067,729.3939,357.74496,729.3871C357.4593,729.3803,357.17627,729.2593,357.09396,729.1144C356.983,728.9689,356.24506,728.7512,355.41928,728.61725C354.62137,728.51263,353.4297,728.1413,352.77936,727.83997C352.10123,727.5096,351.1911,727.31635,350.47552,727.3566C349.50214,727.4192,349.2757,727.32806,349.1722,726.8682C349.0933,726.58057,348.81372,726.31665,348.49948,726.3092C348.2138,726.3024,347.34378,725.6243,346.53357,724.83325C345.7241,724.01385,344.96765,723.36694,344.8534,723.3642C344.7391,723.3616,344.31873,723.00854,343.89972,722.59845C343.48135,722.1597,342.8358,721.6585,342.46848,721.4783C342.1012,721.298,341.57465,720.5994,341.27664,719.9063C340.97806,719.2419,340.56235,718.6889,340.39093,718.6848C340.19095,718.68005,340.02496,718.4475,340.03244,718.1332C340.03925,717.84753,339.87665,717.47205,339.6807,717.2959C339.48483,717.11975,339.1562,716.51166,338.94128,715.9349C338.75415,715.3873,338.4793,714.92346,338.33643,714.9201C338.22217,714.91736,338.112,714.7432,338.11673,714.54315C338.12213,714.31476,337.81876,713.8501,337.4562,713.47C337.0644,713.1176,336.68002,712.45105,336.60513,711.99194C336.50174,711.53217,336.33917,711.15674,336.22482,711.154C336.13913,711.152,335.80786,710.65814,335.50787,710.05084C335.20712,709.47186,334.68607,708.54486,334.29828,708.02106C333.93912,707.49805,333.6439,706.69073,333.65475,706.23364C333.6744,705.40515,334.49042,703.5379,334.95435,703.26306C335.12778,703.18146,335.25153,702.7843,335.26105,702.3843C335.2698,702.0129,335.39157,701.70135,335.53445,701.7047C335.67728,701.70807,335.85544,701.4266,335.94995,701.0572C336.26486,699.8355,337.11084,697.91187,337.642,697.2099C337.93713,696.81665,338.29562,696.1677,338.41937,695.7705C338.54315,695.3732,338.72333,695.0059,338.83963,694.9229C339.13077,694.70123,339.7585,693.54407,339.7666,693.20135C339.77066,693.02985,339.95496,692.49115,340.19507,692.01086C340.7976,690.7103,341.07034,690.0594,341.20023,689.40497C341.26413,689.1206,341.50552,688.58325,341.7429,688.2173C341.97958,687.87994,342.1965,687.1705,342.2087,686.6562C342.22095,686.14197,342.43988,685.3468,342.67926,684.89514C342.91803,684.47205,343.13696,683.6769,343.14984,683.13416C343.16205,682.61993,343.28778,682.13696,343.4327,682.05457C343.54898,681.9716,343.76593,681.26215,343.8414,680.49225C343.94473,679.7514,344.28278,678.759,344.60785,678.3094C344.9329,677.8597,345.2995,676.868,345.4042,676.07007C345.50824,675.3009,345.7245,674.62,345.89728,674.56696C346.07004,674.51385,346.2285,673.86017,346.24542,673.146C346.2916,672.4039,346.4847,671.4938,346.72278,671.09924C346.9608,670.7047,347.14917,669.9945,347.1899,669.481C347.20145,668.9954,347.35654,668.4845,347.50137,668.4021C347.87814,668.1825,347.92563,666.18274,347.5631,665.8024C347.39572,665.6271,347.46506,665.1141,347.73914,664.40607C347.9826,663.78296,348.17572,662.8728,348.21576,662.3878C348.22662,661.9307,348.50613,660.9941,348.83597,660.3445C349.1651,659.7234,349.4453,658.7582,349.45752,658.24396C349.46973,657.7298,349.68866,656.9346,349.9281,656.48285C350.16684,656.0599,350.3857,655.2646,350.39865,654.72186C350.41086,654.2077,350.56586,653.6968,350.73938,653.6152C350.91348,653.50494,350.97668,653.24915,350.89645,653.01855C350.81546,652.8166,350.8787,652.5608,351.02362,652.47845C351.19766,652.36835,351.32553,651.7997,351.33984,651.19977C351.35403,650.59985,351.48187,650.0311,351.6267,649.9489C351.74304,649.86584,351.9613,649.0992,352.09662,648.2163C352.20334,647.33276,352.45493,646.3668,352.6045,646.08453C352.7834,645.77435,353.05273,645.2663,353.20303,644.9553C353.35333,644.6445,353.51178,643.9908,353.52402,643.47656C353.53616,642.96234,353.75513,642.1672,353.99457,641.7155C354.23325,641.2924,354.45422,640.41156,354.46854,639.8116C354.48343,639.1831,354.60922,638.7001,354.7521,638.7034C354.89487,638.7069,355.1132,637.9403,355.24982,637.0003C355.38647,636.0602,355.60678,635.2079,355.75165,635.1256C355.89655,635.04333,356.0196,634.6746,356.0291,634.27466C356.0379,633.90326,356.15967,633.5917,356.30252,633.59503C356.4453,633.5985,356.53647,633.37195,356.5147,633.08563C356.44116,632.56934,356.822,630.9777,357.27286,630.04504C357.39456,629.7335,357.6156,628.85266,357.72025,628.0547C357.8529,627.2862,358.0712,626.5196,358.21744,626.3802C358.39288,626.2127,358.5214,625.61554,358.5349,625.0442C358.5485,624.47284,358.76883,623.6205,359.00757,623.1974C359.24695,622.7457,359.46725,621.89343,359.4815,621.29346C359.4951,620.7221,359.62082,620.23926,359.76364,620.2426C360.02078,620.2487,360.36288,619.08484,360.54095,617.60266C360.60828,617.1755,360.7327,616.7497,360.82114,616.63745C360.9374,616.55444,361.03262,616.1565,361.04144,615.78516C361.05023,615.41376,361.17133,615.1308,361.31418,615.13416C361.42844,615.13684,361.64536,614.42737,361.75208,613.5439C361.8588,612.6603,362.1083,611.7801,362.25455,611.6406C362.43005,611.4733,362.5872,610.87665,362.6007,610.30536C362.61426,609.73395,362.74213,609.16534,362.9176,608.9979C363.06378,608.8585,363.2821,608.0919,363.41467,607.32336C363.51932,606.5254,363.74103,605.61597,363.8927,605.24805C364.04367,604.90857,364.28574,604.34265,364.4374,603.9746C364.5884,603.63513,364.83932,602.6979,364.94336,601.9285C365.07663,601.1314,365.26636,600.36414,365.41254,600.22473C365.5309,600.0561,365.7186,599.37445,365.82126,598.6623C366.09186,596.8965,366.21695,596.4421,366.45096,596.2189C366.5679,596.1073,366.66583,595.59515,366.67804,595.08093C366.69025,594.5667,366.81604,594.08374,366.9616,593.97284C367.10648,593.89056,367.35403,593.0961,367.4893,592.2131C367.62524,591.30176,367.9666,590.16644,368.2652,589.6304C368.5917,589.1236,368.84122,588.24347,368.85547,587.64355C368.86905,587.0722,369.0893,586.2199,369.32874,585.7681C369.5674,585.3451,369.78845,584.4642,369.80264,583.86426C369.81696,583.2643,369.94412,582.72424,370.08893,582.6419C370.23447,582.53107,370.45206,581.7931,370.5861,580.9672C370.82062,579.5151,371.37277,577.9274,371.65848,577.9342C371.74417,577.9362,371.78497,577.42267,371.74344,576.76416C371.6733,576.1051,371.80655,575.3079,372.01538,574.9413C372.25412,574.51807,372.32886,573.77673,372.20972,572.77344C372.1444,571.9143,372.0436,570.1397,372.01694,568.85284C371.99915,567.1945,371.84875,566.3048,371.5426,565.9545C371.29233,565.6628,371.1025,565.2295,371.1079,565.0009C371.11407,564.7438,370.92218,564.39624,370.69836,564.19086C370.47458,563.9854,370.2827,563.6379,370.28748,563.43787C370.29294,563.2093,370.18274,563.0353,370.0113,563.0312C369.86844,563.0278,369.648,562.67957,369.57315,562.2204C369.4691,561.7891,369.1691,561.1818,368.91943,560.86145C368.6412,560.5404,368.14664,559.69965,367.82074,558.97736C366.8431,556.8103,366.43152,556.086,366.203,556.08057C366.0887,556.0778,365.8425,555.61456,365.6268,555.06635C365.41113,554.5182,365.1649,554.055,365.022,554.0516C364.90775,554.0489,364.79825,553.8461,364.80368,553.6176C364.80908,553.38904,364.69955,553.1864,364.52817,553.18225C364.38528,553.1789,364.00092,552.5123,363.6479,551.73224C363.2955,550.92346,362.88187,550.2848,362.739,550.28143C362.5676,550.27734,362.2901,549.92773,362.1003,549.4945C361.39548,547.8771,361.09277,547.384,360.74997,547.37585C360.54993,547.3711,360.38596,547.05273,360.3948,546.68134C360.4036,546.31,360.2125,545.9338,359.98663,545.81415C359.7601,545.723,359.56625,545.4612,359.5717,545.2326C359.57776,544.9755,359.3281,544.65515,358.99005,544.447C358.56696,544.2083,358.43088,543.91925,358.55734,543.4077C358.65594,542.86694,358.46683,542.40515,357.77158,541.58826C357.24298,540.97546,356.83008,540.30817,356.83554,540.07965C356.8416,539.8225,356.6498,539.47504,356.42596,539.2696C356.2022,539.06415,356.0097,538.74524,356.01443,538.54517C356.0185,538.3738,355.77222,537.9106,355.46677,537.53174C355.16132,537.1529,354.9151,536.68976,354.91916,536.5183C354.92395,536.3183,354.73138,535.99927,354.50757,535.7939C354.28375,535.5885,354.09265,535.21234,354.09943,534.92676C354.10617,534.641,353.915,534.2649,353.69122,534.05945C353.4674,533.85406,353.27823,533.3922,353.28638,533.04944C353.2952,532.67804,353.10342,532.3305,352.87756,532.21075C352.65103,532.11957,352.46054,531.7149,352.4707,531.2864C352.4822,530.8007,352.3183,530.4824,351.92038,530.38727C351.6082,530.2941,351.3578,530.00226,351.3646,529.7166C351.37137,529.43085,351.18158,528.9976,350.95917,528.7351C350.73602,528.50116,350.54617,528.0679,350.55362,527.75366C350.5611,527.4394,350.3706,527.03467,350.14682,526.8292C349.92307,526.62384,349.73187,526.2478,349.73865,525.96204C349.74548,525.6764,349.5543,525.3002,349.33044,525.0948C349.1067,524.88934,348.9155,524.51324,348.92233,524.2276C348.9284,523.97046,348.68216,523.5073,348.37463,523.2142C348.0672,522.921,347.81958,522.515,347.82367,522.3435C347.82843,522.1436,347.6359,521.82465,347.41205,521.6192C347.18826,521.4138,346.99707,521.03766,347.0039,520.75195C347.0107,520.4663,346.81952,520.09015,346.59573,519.88477C346.3719,519.6793,346.1828,519.2175,346.19162,518.84607C346.2004,518.47473,346.0936,518.1578,345.9508,518.1544C345.6651,518.14764,345.20584,517.022,345.32962,516.62463C345.3901,516.4832,345.13705,516.3056,344.82492,516.21246C344.5127,516.11926,344.26233,515.8276,344.2691,515.54193C344.27588,515.2562,344.0847,514.88007,343.86093,514.6746C343.63715,514.46924,343.44666,514.0646,343.45413,513.75024C343.46158,513.43604,343.27173,513.00275,343.04865,512.7688C342.82617,512.5062,342.63568,512.10156,342.64252,511.81592C342.64926,511.5302,342.403,511.06702,342.09555,510.77386C341.78812,510.4807,341.54175,510.01752,341.54788,509.76038C341.5547,509.4748,341.36346,509.09863,341.1397,508.8932C340.91586,508.6878,340.72678,508.226,340.7356,507.8545C340.74576,507.42603,340.58047,507.16486,340.32333,507.15875C340.06622,507.15265,339.90094,506.89148,339.91177,506.4344C339.92123,506.03442,339.7308,505.62976,339.50427,505.53857C339.27844,505.41888,339.08524,505.12848,339.092,504.84277C339.0981,504.58575,338.8518,504.12244,338.54437,503.82928C338.2369,503.53613,337.99063,503.073,337.99673,502.81586C338.00287,502.55884,337.64978,501.77856,337.17905,501.13855C336.73758,500.47064,336.35522,499.71838,336.36127,499.46124C336.36673,499.23273,336.17624,498.82806,335.9531,498.594C335.7307,498.33148,335.54013,497.92682,335.54697,497.6411C335.55307,497.38403,335.11154,496.71613,334.58163,496.16034C334.05173,495.6048,333.60886,494.99396,333.61362,494.794C333.61838,494.594,333.42242,494.41785,333.19394,494.4124C332.9654,494.40698,332.77014,494.2022,332.77618,493.9452C332.7857,493.54523,332.20273,492.8167,329.66876,489.9839C329.3899,489.69147,329.1695,489.34326,329.17358,489.1718C329.17697,489.02893,328.9266,488.73718,328.61707,488.5298C328.30765,488.32227,328.05798,488.00195,328.06134,487.85913C328.06543,487.68768,327.56674,487.01843,326.9525,486.40356C326.33823,485.7887,325.8396,485.1195,325.84366,484.94806C325.84775,484.7766,325.54434,484.31207,325.15326,483.93115C324.76205,483.55035,324.45798,483.11432,324.46136,482.9715C324.46542,482.8001,323.79813,482.0124,323.01788,481.16498C321.03632,479.14563,320.5723,478.21985,320.6184,476.27728C320.64352,475.22015,320.4639,474.3584,320.10876,473.664C319.8081,473.08514,319.5706,472.2506,319.58145,471.79346C319.5923,471.3363,319.40518,470.78876,319.1828,470.52625C318.95963,470.2923,318.76852,469.9162,318.7732,469.7162C318.77798,469.5163,318.4793,468.85175,318.12082,468.3001C317.7344,467.71924,317.35342,466.9098,317.27722,466.50775C317.1725,466.10516,316.87106,465.55487,316.56363,465.26178C316.28406,464.99786,316.03778,464.53455,316.04523,464.22034C316.052,463.9347,315.85745,463.70148,315.6289,463.69604C315.3718,463.69,315.20648,463.42877,315.2167,463.00024C315.22546,462.62885,315.12006,462.2547,314.97858,462.19415C314.667,462.07245,312.45,459.1328,312.4568,458.84717C312.4602,458.70428,311.90643,457.94788,311.21054,457.15967C310.51535,456.34277,309.9623,455.55786,309.96567,455.41498C309.96976,455.24365,309.5262,454.66144,308.9963,454.1057C308.46634,453.55005,308.0235,452.93927,308.02756,452.76788C308.03232,452.56793,307.83707,452.36316,307.6112,452.24347C307.38477,452.15234,307.1909,451.89044,307.1956,451.6905C307.20105,451.4619,306.95346,451.0558,306.64594,450.76276C306.08673,450.235,306.0942,449.92072,306.36157,441.06598L306.66495,431.89746L307.9811,431.84296C308.89664,431.8075,309.40817,431.93402,309.65784,432.25433C309.85242,432.48767,310.41904,432.70117,310.9333,432.71338C311.4761,432.72632,312.04196,432.96838,312.34808,433.31866C312.68207,433.69824,313.22012,433.91113,313.90582,433.92737C314.4771,433.94098,315.1866,434.15778,315.49545,434.3938C315.91653,434.71826,317.1429,434.83307,321.39886,434.9627L326.74118,435.08954L327.0106,435.78198C327.33038,436.7614,327.7827,436.97223,328.39554,436.44373C329.09604,435.83148,330.2089,435.9151,330.79257,436.61487C331.09796,436.99377,331.60748,437.20593,332.23593,437.22083C332.75027,437.23303,333.34543,437.44733,333.53998,437.6806C333.73456,437.91382,334.2726,438.12677,334.72968,438.13763C335.18674,438.14844,335.61124,438.33008,335.69083,438.58917C335.79834,438.87744,336.252,439.0312,336.93762,439.04742C337.53754,439.0617,338.16132,439.2766,338.3559,439.5099C338.55048,439.74323,339.1742,439.95813,339.7741,439.97235C340.6026,439.99207,340.8856,440.11304,340.989,440.57294C341.09244,441.03278,341.37543,441.1537,342.28964,441.17535C343.0895,441.19434,343.5432,441.34808,343.62213,441.6358C343.73032,441.89563,344.15472,442.0772,344.7261,442.09082C345.24036,442.10303,345.80692,442.3166,346.00156,442.54987C346.19543,442.81177,346.8198,442.9981,347.56265,443.0157C348.3054,443.03333,348.92978,443.21967,349.1237,443.48145C349.3455,443.77258,349.9991,443.93097,350.999,443.9547C351.99893,443.97845,352.87982,444.19946,353.52805,444.5865C354.092,444.9143,354.8858,445.19043,355.34286,445.2013C355.79993,445.2121,356.30942,445.42426,356.504,445.6576C356.72574,445.9486,357.35086,446.10638,358.23648,446.12738C359.29355,446.15253,359.6336,446.2749,359.62613,446.58917C359.61865,446.90344,359.95886,447.02588,360.90158,447.04828C361.7872,447.0692,362.24094,447.22296,362.34836,447.51135C362.45593,447.7998,362.9096,447.9535,363.70947,447.97247C364.5666,447.99274,365.0202,448.14642,365.29572,448.58167C365.57196,448.9884,366.02496,449.17065,366.73917,449.18762C367.4248,449.20386,367.8499,449.35693,367.95734,449.64532C368.03766,449.87585,368.40433,450.08472,368.77573,450.09357C369.1757,450.10303,369.628,450.31372,369.82254,450.54706C370.01712,450.7804,370.41232,450.9898,370.75513,450.998C371.06937,451.00543,371.52112,451.24487,371.77213,451.50812C372.02243,451.79987,372.52988,452.09772,372.92917,452.1358C373.32776,452.20245,373.8366,452.44324,374.0883,452.6778C374.31137,452.91174,374.793,453.09473,375.1072,453.10217C375.42148,453.10962,375.8452,453.31982,376.0398,453.5531C376.23434,453.78632,376.60098,453.99518,376.88666,454.00195C377.17236,454.00873,377.539,454.21753,377.73355,454.45087C377.92813,454.6842,378.4376,454.89624,378.89468,454.9071C379.43747,454.91998,379.71982,455.06958,379.71304,455.3553C379.70758,455.58392,379.78848,455.7859,379.93066,455.81787C380.87137,455.92596,381.57956,456.2,381.9713,456.55237C382.22305,456.787,382.64676,456.99707,382.87537,457.00244C383.13248,457.0086,383.47058,457.21674,383.66516,457.45C383.85965,457.68335,384.25488,457.89276,384.56915,457.90033C384.8834,457.9077,385.30716,458.11792,385.53033,458.3518C385.78198,458.58655,386.32004,458.79938,386.7486,458.80957C387.1771,458.8197,387.6859,459.0605,387.9063,459.40863C388.12738,459.72833,388.57837,459.99628,388.92117,460.00446C389.26398,460.01263,389.68784,460.22278,389.88242,460.45605C390.10413,460.74713,390.7578,460.90558,391.84338,460.9314C392.7855,460.9823,393.667,461.17474,393.97583,461.41077C394.39688,461.7351,395.33688,461.87177,397.56528,461.92462L400.59354,461.99652L402.55438,460.07074C403.63715,459.01025,404.51657,458.08777,404.51932,457.97357C404.52136,457.88788,405.313,457.04907,406.27884,456.10016C407.24393,455.17987,408.03702,454.28394,408.03973,454.16968C408.0431,454.0268,408.2213,453.74518,408.426,453.54993C408.8953,453.04663,409.45844,452.2024,409.78964,451.4956C409.93994,451.1848,410.32352,450.67944,410.6731,450.40186C410.99484,450.09503,411.29,449.70184,411.29544,449.47333C411.30222,449.18762,411.9613,449.1176,414.10394,449.16846C415.64664,449.20508,417.01593,449.32318,417.12753,449.4402C417.23834,449.58575,418.86475,449.71014,420.72165,449.7542C423.0643,449.80975,424.2329,449.95184,424.456,450.18585C424.9859,450.74158,426.07422,450.65308,426.48914,450.034C426.7257,449.6966,427.18832,449.47894,427.6454,449.4898C428.331,449.5061,430.70435,450.67712,431.40353,451.3227C431.54303,451.46893,431.88312,451.5913,432.14023,451.5974C432.39737,451.60352,432.76407,451.81226,432.95862,452.04553C433.1531,452.27887,433.51974,452.4876,433.80545,452.4944C434.06256,452.5005,434.51355,452.7685,434.7918,453.08954C435.07004,453.41058,435.46387,453.6772,435.6924,453.68262C435.89233,453.68738,436.14478,453.89337,436.225,454.12396C436.33386,454.35522,436.72916,454.5647,437.18622,454.57556C437.64328,454.58636,438.03848,454.79584,438.1473,455.02716C438.2276,455.2577,438.53714,455.46515,438.8228,455.47192C439.13705,455.47937,439.53226,455.68884,439.7268,455.92224C439.9214,456.15546,440.2595,456.36346,440.4594,456.3683C440.68802,456.37372,440.85666,456.49213,440.85397,456.60638C440.84717,456.8921,443.0117,458.42975,443.4116,458.4392C443.55444,458.44263,443.66464,458.61676,443.65924,458.84534C443.65448,459.04535,443.87634,459.33643,444.15994,459.4289C444.95306,459.73358,446.02234,460.44507,446.32648,460.88098C446.46454,461.08435,446.8006,461.37817,447.02643,461.49786C448.2978,462.12836,448.99838,462.71667,450.92346,464.70605C455.054,468.9203,457.9206,472.1897,457.91043,472.61823C457.90497,472.8468,458.04102,473.13586,458.21045,473.2257C458.35052,473.34332,458.62747,473.72156,458.76285,474.03912C459.16827,475.0207,459.60843,475.74567,460.5213,477.0251C461.4349,478.27588,461.95874,479.08868,462.22885,479.75262C462.4724,480.32996,462.86087,480.8252,463.72473,481.76038C464.89682,482.96014,465.31854,483.25598,465.88992,483.2696C466.20422,483.27704,466.59937,483.4865,466.79395,483.71985C466.9885,483.95313,467.298,484.16058,467.49796,484.16528C467.69797,484.17004,467.92175,484.37543,468.03064,484.6067C468.11087,484.83722,468.47748,485.04602,468.87747,485.05548C469.24884,485.06433,469.61823,485.15887,469.6727,485.27448C469.8332,485.7356,471.8018,487.0973,472.53986,487.31488C472.93774,487.41003,473.27585,487.61823,473.27246,487.76105C473.2691,487.90393,473.43774,488.02216,473.66623,488.02765C473.86624,488.0324,474.20438,488.2406,474.39893,488.47382C474.5934,488.7071,474.9315,488.91516,475.1886,488.9212C475.4172,488.9267,475.89603,489.22388,476.23077,489.57483C477.17902,490.56927,478.4435,491.4854,479.2659,491.7621C479.52032,491.8825,479.74277,492.14502,479.7381,492.34497C479.73264,492.57355,479.9285,492.74976,480.15704,492.7552C480.3856,492.76056,480.5815,492.93677,480.57675,493.13672C480.57138,493.36523,480.87476,493.82977,481.26587,494.21063C481.657,494.59155,481.96115,495.0276,481.95847,495.14178C481.94962,495.51318,482.7312,496.30353,483.57806,496.75244C484.45285,497.23053,486.82333,497.31537,487.2913,496.86908C487.8177,496.36707,487.865,491.9662,487.33298,491.49622C487.10922,491.29083,486.91672,490.9718,486.9215,490.77185C486.92618,490.57184,487.1316,490.34808,487.36282,490.23926C487.59344,490.15894,487.79953,489.90656,487.80496,489.67798C487.8097,489.47803,488.01578,489.2257,488.24713,489.11688C488.7368,488.95703,488.85306,487.67346,488.43127,487.37756C488.2626,487.25934,488.2095,487.0865,488.29865,486.94574C488.3877,486.80493,488.3346,486.63214,488.16602,486.5138C488.02515,486.42474,487.8959,485.8499,487.91083,485.22144C487.92703,484.53583,487.79504,484.07532,487.5121,483.95428C487.28555,483.86316,487.09106,483.62976,487.0958,483.4298C487.10052,483.2298,486.659,482.56195,486.13046,481.94916C485.60193,481.3363,485.1591,480.7256,485.16315,480.5542C485.16653,480.41132,484.96924,480.2923,484.7407,480.28687C484.5121,480.28143,484.31558,480.13385,484.31964,479.9624C484.32373,479.79095,483.85223,479.1795,483.2659,478.59387C482.67953,478.0083,481.7625,476.90033,481.26663,476.11676C480.77,475.36182,480.24142,474.74896,480.0986,474.7456C479.9843,474.74286,479.8734,474.5973,479.87683,474.4544C479.8809,474.28308,479.29858,473.52606,478.602,472.7663C477.90543,472.0067,476.43332,470.1994,475.3238,468.77246C474.1864,467.31628,473.01978,465.88788,472.6838,465.59406C472.37695,465.2724,472.0994,464.9228,472.1021,464.80853C472.10886,464.52283,471.41568,463.62024,469.69125,461.607C469.02255,460.8766,468.49603,460.17804,468.4988,460.06378C468.5008,459.97803,470.35974,459.9364,472.6167,459.99C475.902,460.06793,476.78558,460.17462,477.06314,460.5243C477.28494,460.81537,477.91003,460.97314,478.88132,460.99622C480.02408,461.02332,480.4214,461.1471,480.6961,461.6109C480.88806,461.95856,481.33966,462.19794,481.82532,462.2094C482.8824,462.2345,483.60126,460.851,483.08356,459.78094C482.78217,459.23083,482.78897,458.94513,483.08887,458.35193C483.60098,457.24933,483.03156,455.94946,482.00308,455.92505C481.57462,455.91486,481.0936,455.70343,480.8991,455.47003C480.70453,455.23682,480.19504,455.02472,479.76648,455.0146C479.33798,455.00433,478.82846,454.79218,478.63394,454.5589C478.3836,454.26703,477.7299,454.10864,476.50156,454.0794C475.30164,454.05096,474.64725,453.92114,474.59616,453.6626C474.48804,453.40283,473.2623,453.25934,470.06406,453.12628C466.5522,452.95715,465.55505,452.81915,465.16318,452.46692C464.91217,452.20367,464.4061,451.8487,464.06732,451.66913C463.69998,451.4889,463.28235,451.0216,463.11902,450.67474C462.95648,450.29932,462.54144,449.71777,462.2075,449.3382C461.90137,448.9879,461.6259,448.55255,461.62994,448.38116C461.63403,448.20972,461.36053,447.68878,461.0285,447.2235C460.3075,446.2917,459.78436,445.45032,459.51355,444.81506C459.40472,444.58386,459.21155,444.29333,459.04282,444.17505C458.81766,444.0268,458.85162,443.799,459.1189,443.37653C459.2978,443.06635,459.495,441.9848,459.51874,440.98492C459.55807,439.328,459.61993,439.12933,460.22388,438.97217C461.34625,438.65576,462.444,438.1673,462.4488,437.96735C462.45148,437.85303,462.94122,437.69318,463.51532,437.5924C464.17502,437.49384,464.92877,437.05432,465.5143,436.4679C466.01218,435.9652,466.56512,435.5495,466.7651,435.55426C466.93655,435.55835,467.08417,435.36182,467.08954,435.1333C467.095,434.90466,467.2997,434.70947,467.52826,434.7149C467.75677,434.72034,467.9615,434.5251,467.96695,434.29657C467.97232,434.06805,468.14853,433.87207,468.34848,433.87677C469.09125,433.89447,470.0074,432.62988,470.03244,431.57288C470.04538,431.0301,470.26566,430.1778,470.5344,429.69824C471.13278,428.56915,471.01843,427.36578,470.28516,426.94824C469.97495,426.7694,469.61105,426.4463,469.5015,426.2436C469.3913,426.06952,469.10968,425.8913,468.90973,425.88654C468.6812,425.8811,468.37167,425.6737,468.1771,425.44037C467.98254,425.2071,467.5874,424.99762,467.2731,424.9901C466.98743,424.98328,466.66843,425.17584,466.5773,425.4024C466.45694,425.6568,466.02435,425.81805,465.453,425.8045C464.8816,425.7909,464.44897,425.9522,464.32867,426.2066C464.2375,426.4331,463.80417,426.62292,463.3757,426.6128C462.94714,426.6026,462.31393,426.7876,462.02283,427.00934C461.7031,427.23047,460.89853,427.41144,460.2129,427.39514C459.29868,427.37347,458.8954,427.50684,458.628,427.92926C458.30225,428.4074,457.92886,428.48444,456.35757,428.44708C454.84344,428.4112,454.38907,428.28607,453.97137,427.8188C453.69318,427.49768,453.12793,427.227,452.69937,427.21686C452.27087,427.20667,451.76135,426.9945,451.56683,426.76117C451.37228,426.52795,450.86276,426.3158,450.43427,426.3056C450.0057,426.29547,449.4963,426.08325,449.30173,425.8499C449.0241,425.5003,448.19772,425.39496,445.28375,425.32574C442.19836,425.25256,441.59705,425.29553,441.5883,425.66693C441.58282,425.89545,441.34955,426.08997,441.03525,426.08258C440.7496,426.0758,440.34494,426.26617,440.13947,426.49C439.93405,426.7138,439.61517,426.9063,439.41513,426.90155C439.24374,426.89746,438.83765,427.14514,438.5445,427.45258C438.25134,427.76013,437.78818,428.0064,437.47397,427.9989C437.18826,427.99213,436.95493,428.18665,436.94952,428.4151C436.9434,428.6723,436.6822,428.8376,436.22513,428.82678C435.82513,428.81726,435.50894,428.8955,435.5062,429.00977C435.49673,429.40973,433.79218,430.16974,433.62756,429.87994C433.51663,429.73444,432.89093,429.60522,432.17676,429.58826C431.26254,429.56653,430.9224,429.44415,430.9298,429.12982C430.938,428.78705,430.5115,428.69116,428.91168,428.6532C427.51184,428.61993,426.77176,428.48804,426.49353,428.167C426.15817,427.84467,425.38953,427.7121,423.38974,427.6646C421.9042,427.6294,420.6214,427.48462,420.53973,427.31116C420.45807,427.1377,419.8037,427.0078,419.1181,426.99152C418.43246,426.97528,417.77875,426.81683,417.6964,426.67194C417.6148,426.49847,416.90332,426.36725,416.13196,426.34894C415.2749,426.32867,414.59332,426.14093,414.3137,425.877C414.09067,425.64313,413.6668,425.43298,413.3526,425.42554C413.0384,425.4181,412.64316,425.20856,412.44855,424.97528C412.254,424.742,411.85883,424.53247,411.57315,424.5257C411.28745,424.51892,411.0045,424.3979,410.89362,424.25232C410.81128,424.10742,410.35956,423.86804,409.8474,423.77008C409.36444,423.6443,408.57266,423.2826,408.09378,422.98535C407.61493,422.6881,406.93536,422.41467,406.59256,422.40662C406.22116,422.39783,405.93884,422.24817,405.94223,422.10535C405.9463,421.9339,405.6382,421.6693,405.24164,421.51697C404.84506,421.36462,404.53693,421.10016,404.541,420.9287C404.5444,420.7859,404.20496,420.6349,403.7764,420.62476C403.37643,420.61523,402.78128,420.401,402.50235,420.10852C402.22278,419.84454,401.65753,419.5739,401.25824,419.5359C400.85968,419.46924,400.2937,419.22717,400.042,418.9925C399.76242,418.72864,399.2244,418.51575,398.8244,418.5063C398.4245,418.49677,397.94354,418.28522,397.74896,418.052C397.55444,417.81873,397.1021,417.60785,396.73065,417.599C396.35934,417.5902,396.04782,417.46844,396.0512,417.32562C396.05457,417.18274,395.63144,416.9441,395.14786,416.8468C394.6363,416.72034,393.98605,416.4192,393.7343,416.18445C393.45477,415.92053,392.9167,415.7077,392.54532,415.6989C392.14542,415.6894,391.60797,415.44794,391.35764,415.15607C391.05154,414.8058,390.48492,414.5923,389.77075,414.57532C388.99933,414.557,388.68787,414.4353,388.6953,414.1211C388.7021,413.8354,388.41977,413.6858,387.87698,413.6729C387.4199,413.66205,386.9104,413.44983,386.71585,413.2166C386.5213,412.98328,386.01178,412.77106,385.5833,412.76093C385.15475,412.75073,384.5895,412.48004,384.31128,412.15912C384.0052,411.80884,383.43924,411.56677,382.86783,411.55316C382.3536,411.54095,381.75845,411.32672,381.50677,411.0921C381.28363,410.85815,380.77417,410.64587,380.40277,410.6371C380.00284,410.62756,379.55045,410.4168,379.35587,410.18347C379.16132,409.95026,378.65182,409.7381,378.22336,409.7279C377.7948,409.71777,377.28534,409.5055,377.0908,409.27228C376.8962,409.03894,376.44385,408.82813,376.0725,408.81927C375.70108,408.81042,374.96445,408.5357,374.40048,408.2079C373.8366,407.88013,372.89996,407.60065,372.27145,407.58575C371.44296,407.56604,371.1314,407.44434,371.1389,407.13007C371.14636,406.8158,370.83484,406.69403,370.03488,406.67505C369.40637,406.66016,368.782,406.47382,368.58813,406.2119C368.39355,405.9787,367.91263,405.76715,367.48407,405.75696C367.0841,405.7475,366.48895,405.53333,366.2087,405.29803C365.89987,405.06195,365.36182,404.84912,364.99042,404.84033C364.6476,404.83215,363.91092,404.55743,363.34705,404.2296C362.7831,403.90173,362.04642,403.627,361.67502,403.61816C361.3037,403.60944,360.85132,403.39856,360.6568,403.16522C360.46222,402.932,359.89557,402.7185,359.3814,402.7063C358.8671,402.6941,358.30054,402.48053,358.10596,402.24725C357.9114,402.01398,357.4591,401.8031,357.0877,401.79425C356.7163,401.78552,356.0082,401.5114,355.50137,401.18488C354.99466,400.85858,354.1722,400.5818,353.6866,400.57025C353.1438,400.55737,352.71933,400.37573,352.6112,400.11597C352.50366,399.8275,352.04996,399.67383,351.16434,399.65283C350.22162,399.63043,349.88153,399.50806,349.88895,399.19373C349.89642,398.87946,349.5849,398.75775,348.78503,398.73877C348.15646,398.72382,347.53204,398.5376,347.33817,398.27576C347.1436,398.04236,346.6627,397.83093,346.23416,397.82074C345.83417,397.81122,345.18326,397.53857,344.79074,397.21472C344.3983,396.891,343.80444,396.61957,343.43307,396.61084C343.09018,396.60272,342.72357,396.39386,342.64328,396.1634C342.5351,395.90356,342.11066,395.722,341.53925,395.70844C340.96796,395.69482,340.54346,395.51324,340.43524,395.25342C340.35574,394.99426,339.93124,394.81268,339.47412,394.80182C339.01703,394.79102,338.479,394.57813,338.28442,394.3448C338.08994,394.1115,337.69467,393.9021,337.38043,393.89465C337.09473,393.88788,336.58664,393.61853,336.25122,393.29614C335.9159,392.9737,335.35062,392.70306,335.0078,392.6949C334.66504,392.68677,334.18408,392.47528,333.9324,392.2406C333.70926,392.0066,333.1426,391.7932,332.68558,391.78235C332.19986,391.7708,331.77548,391.58923,331.66727,391.32935C331.58694,391.09875,331.2203,390.88995,330.84897,390.88116C330.44897,390.87164,329.9966,390.66083,329.80212,390.4275C329.60754,390.1942,329.09802,389.98206,328.66953,389.9718C328.241,389.96167,327.67575,389.69104,327.3975,389.37006C327.11923,389.049,326.61115,388.77966,326.26837,388.77155C325.89688,388.76276,325.55893,388.55457,325.45004,388.32336C325.36975,388.09277,325.1745,387.88806,325.03165,387.88458C324.8602,387.88055,324.35416,387.52557,323.9079,387.05762C322.62222,385.82654,321.4427,384.94104,321.09995,384.93298C320.9285,384.9289,320.79037,384.72546,320.79584,384.49695C320.80124,384.26843,320.6917,384.06567,320.54886,384.06226C320.3775,384.05817,319.78842,383.58676,319.20135,383.02975C318.61426,382.4728,317.91296,381.91306,317.65787,381.8212C317.37418,381.72867,317.15045,381.5233,317.15384,381.3804C317.15726,381.23758,316.96,381.11856,316.73138,381.1132C316.50284,381.1077,316.3076,380.90298,316.31302,380.67453C316.3198,380.38882,316.03757,380.23923,315.49472,380.2263C315.0377,380.21542,314.52817,380.00327,314.33365,379.77C314.13907,379.5367,313.74384,379.32724,313.42957,379.31973C313.14386,379.3129,312.63577,379.04367,312.30038,378.72122C311.96503,378.3989,311.39978,378.1282,311.05698,378.12015C310.71417,378.11197,310.23322,377.90042,309.98157,377.66574C309.75845,377.4318,309.33463,377.22165,309.0204,377.2142C308.70618,377.2067,308.31097,376.99728,308.11642,376.76395C307.92184,376.53067,307.41232,376.31845,306.95523,376.3076C306.4124,376.2947,306.13016,376.14517,306.13693,375.85947C306.1437,375.57382,305.86145,375.42422,305.3472,375.41196C304.91867,375.40182,304.3534,375.13113,304.07523,374.8101C303.82556,374.48972,303.37457,374.22165,303.0603,374.2142C302.7746,374.2075,302.37946,373.99808,302.18488,373.7648C301.99033,373.53146,301.48077,373.31924,301.0237,373.30844C300.4809,373.29556,300.19864,373.1459,300.2054,372.8602C300.21225,372.5745,299.9299,372.4249,299.4728,372.41403L298.70142,372.39578L299.0094,369.0588C299.13913,367.2039,299.4084,365.4952,299.55795,365.21292C299.70694,364.9592,299.8768,362.61923,299.93784,360.04813C300.0287,356.21994,299.9653,355.27512,299.62933,354.9813C299.2933,354.6876,299.22723,353.85696,299.2964,350.94296C299.34384,348.94315,299.2703,347.2264,299.15796,347.13803C299.01718,347.04886,298.85593,345.4158,298.81497,343.5283C298.74603,341.61142,298.58884,339.80685,298.42416,339.51718C298.2881,339.22812,298.17377,338.02475,298.2022,336.82492C298.23,335.65353,298.1408,334.5939,297.9715,334.50412C297.83066,334.41507,297.70004,333.89737,297.71295,333.3547C297.7285,332.69754,297.51285,332.14926,297.03873,331.65207C296.64822,331.24265,296.3489,330.60672,296.35837,330.20676C296.36722,329.8353,296.1794,329.3163,295.95703,329.05386C295.73392,328.81992,295.54407,328.38657,295.55154,328.07236C295.55902,327.7581,295.3739,327.12485,295.15552,326.69095C294.93787,326.22836,294.75214,325.62375,294.75824,325.3666C294.7643,325.10947,294.65686,324.821,294.51602,324.73196C294.37518,324.6429,294.18536,324.20963,294.08127,323.77835C294.0058,323.3478,293.6833,322.4827,293.41183,321.87595C293.11252,321.23996,292.79205,320.2891,292.71924,319.74423C292.64578,319.22794,292.45798,318.70895,292.31714,318.61978C292.17633,318.5308,292.07016,318.18527,292.0783,317.84244C292.08646,317.49966,291.8994,316.95206,291.67764,316.66092C291.4565,316.34128,291.2701,315.76523,291.2789,315.39377C291.2877,315.02237,291.04553,314.3878,290.74078,313.98044C290.43604,313.57303,290.27475,313.1404,290.3646,312.97098C290.45364,312.83017,290.2672,312.25406,289.96585,311.7039C289.63596,311.15292,289.39508,310.46115,289.40186,310.17545C289.4087,309.88974,289.2181,309.48508,288.99442,309.2797C288.77057,309.0743,288.5794,308.69815,288.58618,308.41245C288.593,308.12674,288.40182,307.75058,288.17798,307.5452C287.9542,307.33987,287.7671,306.79227,287.77795,306.3351C287.7922,305.7352,287.62756,305.44547,287.2303,305.32175C286.83307,305.19797,286.6685,304.9083,286.6813,304.36545C286.69153,303.93686,286.50372,303.41788,286.2799,303.21255C286.05612,303.00717,285.86633,302.57388,285.87448,302.23105C285.88193,301.91672,285.69482,301.36917,285.47305,301.0781C285.25198,300.7585,285.06418,300.2394,285.07095,299.95377C285.0784,299.6395,284.91647,299.23544,284.69205,299.05862C284.49615,298.88254,284.25256,298.30508,284.15045,297.78812L284.02936,296.87045L289.80014,297.00742C293.82828,297.10306,295.71652,297.0336,295.95047,296.81046C296.18445,296.58737,298.93045,296.5096,305.07462,296.5696C312.96213,296.64255,313.96408,296.58047,314.8034,296.1431C315.35364,295.84177,316.21616,295.6335,316.73038,295.64566C317.24463,295.65787,317.8493,295.47214,318.05472,295.24844C318.2608,294.99612,318.89346,294.83963,319.63614,294.8572C320.37894,294.87485,321.01157,294.71835,321.2176,294.46597C321.45218,294.21426,322.0848,294.05777,322.8562,294.07608C323.5989,294.09366,324.31723,293.93924,324.55188,293.68753C324.81503,293.4366,325.53336,293.28214,326.21902,293.29843C327.07605,293.31876,327.59436,293.15952,327.97522,292.76834C328.3561,292.37723,328.87445,292.21805,329.70288,292.23764C330.44565,292.25534,331.07822,292.0988,331.28424,291.8464C331.49036,291.59402,332.15158,291.43832,332.83716,291.45462C333.46567,291.4695,334.2704,291.28848,334.5614,291.06674C334.88113,290.84555,335.57144,290.66196,336.14282,290.67545C336.68564,290.68832,337.3475,290.50394,337.63928,290.25363C337.90176,290.03116,338.47928,289.78763,338.87985,289.76852C339.30978,289.72153,339.8872,289.47806,340.17905,289.22775C340.44226,288.9767,341.01834,288.7903,341.41833,288.79977C341.81827,288.8093,342.3087,288.62076,342.5141,288.397C342.7195,288.1732,343.23843,287.98538,343.66696,287.9955C344.0955,288.0057,344.61447,287.81802,344.8199,287.59415C345.02527,287.3704,345.5157,287.18198,345.88715,287.19083C346.28702,287.2003,346.95023,286.95877,347.35834,286.62534C347.82355,286.2935,348.34186,286.1342,348.73978,286.2294C349.13705,286.35312,349.54034,286.21982,349.86346,285.85587C350.15662,285.54843,350.7626,285.30557,351.21967,285.31644C351.73392,285.32864,352.02298,285.19254,352.0298,284.90683C352.0386,284.5355,352.86844,284.49796,357.86792,284.61667C362.69592,284.7313,363.75497,284.6707,364.04883,284.33456C364.25424,284.11075,364.7446,283.92227,365.17313,283.93246C365.57312,283.942,366.2363,283.70047,366.6437,283.39578C367.05112,283.0909,367.6571,282.8481,368.02856,282.8569C368.37134,282.86502,368.74744,282.67386,368.8386,282.4473C368.959,282.19296,369.3916,282.0317,369.99155,282.04587C370.6772,282.06216,370.96622,281.92612,370.973,281.64053C370.98047,281.32626,371.29742,281.21945,372.0973,281.23843C372.81155,281.2554,373.272,281.12338,373.3931,280.84042C373.48425,280.61386,373.88892,280.42337,374.26028,280.43222C374.66025,280.44168,375.15198,280.19608,375.38806,279.88724C375.77164,279.38187,376.22934,279.36417,385.9732,279.50967C393.63083,279.63425,396.2333,279.58163,396.52576,279.30276C396.78894,279.05167,398.248,279.00058,401.79047,279.08463C405.79004,279.1796,406.7634,279.11697,407.05725,278.78085C407.35104,278.4448,408.21008,278.37955,411.46686,278.45682C414.23807,278.5226,415.6406,278.4415,415.87457,278.2184C416.10858,277.99527,416.25806,276.51242,416.33197,273.39847C416.3964,270.68442,416.55472,268.83023,416.72885,268.72C416.90237,268.6384,417.02402,268.3268,417.0308,268.0411C417.0559,266.9841,418.33054,266.27115,420.4194,266.17783C421.47778,266.14572,422.5668,266.02866,422.79733,265.9484C423.02863,265.83963,423.65915,265.76883,424.17477,265.7239C425.32022,265.63675,426.0752,265.1401,425.71463,264.67422C425.57587,264.49936,425.38943,263.9232,425.2874,263.40634C425.21317,262.91867,425.02338,262.48538,424.93768,262.4833C424.8234,262.48062,424.57645,262.046,424.38867,261.52707C424.20026,261.03665,423.90088,260.4006,423.76346,260.16867C423.18668,259.18326,423.16415,258.92538,423.68726,258.56625C423.97833,258.34445,424.5252,258.18594,424.86804,258.19406C425.2394,258.20285,425.61426,258.06882,425.7033,257.928C425.79306,257.75864,427.13843,257.67618,428.70975,257.71347C431.02377,257.76846,431.7353,257.89963,432.5529,258.37643C433.11685,258.7043,433.91064,258.98044,434.3391,258.99057C434.79626,259.00137,435.39142,259.2156,435.70023,259.45163C435.9805,259.68692,436.7756,259.9058,437.40408,259.92075C438.08972,259.93698,438.7428,260.124,438.9366,260.3859C439.35294,260.9103,443.92114,261.1331,444.21835,260.6542C444.33676,260.48544,444.5095,260.43246,444.65027,260.5215C444.79114,260.61063,444.96384,260.55753,445.08215,260.38882C445.1713,260.24802,445.74606,260.11868,446.34598,260.1329C446.9459,260.14725,447.83636,259.96835,448.27026,259.74997C448.73282,259.5322,449.7089,259.35532,450.48022,259.3737C451.70868,259.4028,451.82153,259.46262,451.80664,260.09116C451.78015,261.20523,454.0725,262.17447,455.14587,261.51382C455.8702,261.1022,458.51566,262.85153,461.30875,265.60477C462.81686,267.0983,464.29974,268.4484,464.61066,268.5988C465.79694,269.19852,466.61252,269.76102,467.00098,270.2562C467.50162,270.83975,468.23218,271.37155,469.16544,271.79385C469.4756,271.97275,469.84094,272.23874,469.95184,272.38425C470.03275,272.58633,471.1728,272.72775,472.62976,272.7623C475.28662,272.82535,475.43076,272.77158,476.35373,271.22134C476.53397,270.85403,476.73248,269.7153,476.7569,268.68692C476.79688,267.00143,476.71863,266.6851,476.0751,266.0981C475.68402,265.7172,475.29153,265.39346,475.20575,265.3914C475.1201,265.38937,474.58615,265.00516,474.0249,264.56308C473.46442,264.09244,472.59094,263.55716,472.11008,263.3456C471.6012,263.1049,471.17886,262.83762,471.18225,262.6948C471.1856,262.55197,470.9883,262.43295,470.75977,262.42758C470.53125,262.4221,469.88638,261.89218,469.32993,261.25015C468.7449,260.6075,468.15726,260.07907,468.01443,260.0756C467.8716,260.07224,467.28116,259.65805,466.72058,259.1874C465.15335,257.77817,465.04044,257.7183,464.7833,257.7122C464.38333,257.70273,463.46906,256.48038,462.81735,255.03574L462.2213,253.64961L463.01645,252.66797C463.75305,251.74216,464.53183,251.44629,464.97806,251.91422C465.08966,252.0311,465.8011,252.16231,466.5718,252.20923C467.34247,252.25612,468.25122,252.50633,468.61652,252.7723C468.95322,253.03755,469.69125,253.25517,470.20547,253.2674C470.7483,253.28023,471.51556,253.46997,471.91003,253.70802C473.0957,254.33633,474.5697,254.85733,475.65195,255.02594C476.19272,255.12451,476.90015,255.42714,477.20758,255.72028C477.5151,256.01346,478.19525,256.25827,478.73807,256.2712C479.25232,256.28336,479.90402,256.5275,480.15567,256.76212C480.43524,257.02603,481.1447,257.2429,481.80173,257.2585C482.4874,257.2748,483.11185,257.46115,483.3058,257.72305C483.5002,257.95633,484.00974,258.1685,484.43823,258.17874C484.8668,258.18887,485.60486,258.4064,486.02798,258.64523C486.47964,258.8846,487.36047,259.1055,488.01758,259.12112C488.81744,259.1401,489.3562,259.32443,489.68948,259.73245C490.07928,260.17056,490.56155,260.32492,491.61862,260.35C492.56134,260.37234,493.24292,260.5601,493.5783,260.88248C493.85788,261.14633,494.08432,261.23746,494.08847,261.06613C494.09186,260.92325,494.41284,260.645,494.81686,260.483C495.22162,260.29263,495.54474,259.92868,495.55215,259.6144C495.55893,259.3287,495.76636,259.01926,495.9976,258.91037C496.2282,258.8301,496.43567,258.52054,496.44174,258.26346C496.44852,257.97775,496.71582,257.5554,497.03543,257.33426C497.44226,257.058,497.62454,256.60507,497.64413,255.77655C497.6794,254.29102,496.51004,252.97697,495.05505,252.85663C494.54153,252.81584,493.68994,252.567,493.15317,252.29704C492.6158,252.05559,491.65128,251.74684,491.02475,251.64624C490.39835,251.54558,489.86035,251.33278,489.80725,251.15997C489.75354,251.01575,489.41406,250.8648,489.04266,250.85597C488.69986,250.84782,488.01895,250.63159,487.5959,250.39296C487.14417,250.15352,486.5204,249.93864,486.17755,249.93051C485.49197,249.91422,484.07846,249.25175,484.0859,248.93753C484.08865,248.82321,483.60495,248.72598,483.0336,248.71246C482.4337,248.69823,481.58142,248.4779,481.1298,248.23848C480.70663,247.99985,480.05432,247.78429,479.71152,247.77615C479.36865,247.768,478.83066,247.55508,478.52176,247.31908C478.24158,247.08379,477.70346,246.87093,477.3892,246.86346C477.04636,246.85533,476.39407,246.63971,475.971,246.40102C475.5193,246.16158,474.89557,245.94666,474.55273,245.9385C473.80997,245.9209,471.83322,244.9022,471.33255,244.31859C471.13867,244.0567,470.77213,243.84792,470.48642,243.8411C470.2007,243.83432,469.834,243.62553,469.63953,243.39236C469.4449,243.15901,469.10687,242.9509,468.90686,242.94614C468.62122,242.93938,468.51648,242.53671,468.54083,241.50818L468.57474,240.07982L471.08868,240.13947C472.86,240.1815,473.77682,240.08893,474.1844,239.78416C474.59174,239.47934,475.56503,239.41678,477.96548,239.4452C480.87946,239.51439,482.0847,239.31424,482.61456,238.66937C482.70303,238.55711,484.4477,238.51285,486.47604,238.56097C494.6751,238.75554,495.19012,238.73918,495.20026,238.31062C495.2057,238.08208,495.41104,237.85826,495.64227,237.74944C495.87286,237.6692,496.08173,237.30257,496.08987,236.95972C496.09863,236.58833,496.3115,236.05022,496.5468,235.76996C497.10724,235.04016,497.1371,233.7831,496.60516,233.31319C496.38132,233.10771,496.1922,232.64587,496.20035,232.30309C496.23157,230.98897,495.88937,230.95224,487.71674,230.84398C482.54395,230.80705,479.88364,230.8868,479.6218,231.08061C479.35922,231.30307,477.47104,231.3726,474.2136,231.32385C470.95618,231.2751,469.1536,231.34671,469.03394,231.57254C468.9156,231.74123,468.68637,231.76436,468.51694,231.67459C468.17953,231.43791,468.5632,230.93245,469.37186,230.58012C469.60312,230.4713,470.21118,230.14272,470.6758,229.8393C471.1689,229.53653,471.74774,229.2359,471.97897,229.12695C472.2095,229.04674,472.61426,228.85619,472.8462,228.71878C473.0781,228.58144,473.48282,228.39095,473.71405,228.28207C473.94534,228.17326,474.35275,227.86844,474.61664,227.58888C474.88052,227.30925,475.2288,227.08885,475.37164,227.09224C475.54306,227.09631,475.8334,226.90312,476.03888,226.67929C476.2442,226.45558,476.70605,226.26646,477.04892,226.27461C477.4203,226.28337,477.76788,226.0915,477.88757,225.86574C477.9794,225.61063,478.44055,225.45003,479.06906,225.46495C479.61188,225.47786,480.07162,225.37442,480.0757,225.20299C480.0791,225.06013,480.5709,224.81456,481.20346,224.65804C481.80682,224.52953,482.47192,224.20229,482.6774,223.9785C482.88278,223.75467,483.34457,223.56555,483.74454,223.57501C484.116,223.58385,484.49207,223.39261,484.58325,223.16614C484.70294,222.9403,485.07907,222.74911,485.45047,222.75795C485.87894,222.7681,486.1402,222.60287,486.1463,222.34576C486.1524,222.08864,486.41354,221.92336,486.7564,221.93143C487.07062,221.93895,487.90997,221.50143,488.57986,220.97421C489.27844,220.44775,489.97488,220.00697,490.1463,220.01105C490.31775,220.01506,490.52652,219.64838,490.6516,219.194C490.74884,218.71036,491.0726,218.31798,491.41745,218.24036C492.8261,217.90219,491.85928,214.07751,490.31726,214.01234C490.0887,214.00696,489.74933,213.85597,489.55405,213.6512C489.303,213.388,489.21735,213.38593,489.21124,213.64304C489.20584,213.87158,488.54602,213.9703,487.08905,213.93578C485.7749,213.90457,484.68518,214.05019,484.16495,214.29503C483.70236,214.51279,482.98346,214.69576,482.5835,214.6863C482.18356,214.67676,481.60605,214.92035,481.3129,215.22787C481.0198,215.53532,480.70145,215.69923,480.58853,215.63943C480.3919,215.49182,479.69955,215.76129,477.04007,217.01299C476.5776,217.23068,475.97354,217.3879,475.68793,217.38113C475.4308,217.37498,475.02606,217.56548,474.82062,217.7893C474.61526,218.01309,474.15344,218.20213,473.7534,218.19269C473.38208,218.18384,472.80463,218.42743,472.45435,218.73357C472.10406,219.03969,471.61224,219.28528,471.3266,219.27852C471.06946,219.27238,470.69333,219.46356,470.48795,219.68738C470.28253,219.91116,469.935,220.10303,469.70642,220.09764C469.50647,220.09286,469.24457,220.2867,469.15344,220.51315C469.03378,220.739,468.65765,220.93018,468.2862,220.92142C467.9149,220.91257,467.5979,221.01938,467.59515,221.13365C467.59174,221.2765,467.06668,221.7214,466.39807,222.19139C465.7588,222.63362,465.0609,223.13156,464.88538,223.29898C464.68137,223.46559,463.75366,224.0153,462.82727,224.50774C461.4098,225.21738,460.92072,225.34868,459.95212,225.21136C459.32565,225.1107,458.75967,224.86862,458.70593,224.7244C458.65286,224.55159,457.97064,224.39252,457.22784,224.37483C456.45648,224.35655,455.74567,224.19676,455.6633,224.05185C455.5531,223.87785,455.35452,223.81593,455.2097,223.89828C455.0641,224.00917,454.95187,223.92073,454.95526,223.77788C454.95935,223.6065,454.64844,223.4562,454.27713,223.44737C453.90573,223.43852,453.45337,223.22768,453.2588,222.99445C453.0642,222.76115,452.78336,222.55437,452.6405,222.55092C452.21194,222.54077,450.7392,220.7622,450.30652,219.72289C450.09018,219.20326,449.93567,218.48495,449.9452,218.08498C449.95465,217.68501,449.8499,217.28241,449.68048,217.19266C449.23026,216.89612,449.44562,213.8426,449.91757,213.225C450.15363,212.91623,450.36642,212.37813,450.3739,212.06384C450.38205,211.72098,450.65143,211.21288,450.9724,210.93475C451.29346,210.65651,451.56406,210.0912,451.57428,209.66264C451.5844,209.2341,451.79666,208.72467,452.02994,208.5301C452.3796,208.25256,452.48895,207.25467,452.58862,203.05518L452.71072,197.91287L451.9019,197.06468C451.45563,196.59677,450.8359,196.21042,450.5217,196.20296C450.20743,196.19551,449.8979,195.98814,449.78906,195.75687C449.70944,195.49774,449.28506,195.31615,448.79932,195.30463C448.1423,195.28903,447.82257,195.5101,447.3479,196.24197C446.99283,196.74812,446.71878,197.45618,446.71133,197.77045C446.7032,198.11331,446.42908,198.82137,446.10132,199.3853C445.7742,199.92067,445.40836,200.88376,445.30768,201.51031C445.1785,202.13608,444.9949,202.64616,444.85205,202.64279C444.70926,202.6394,444.58133,203.20811,444.5651,203.89377C444.53122,205.32216,443.96063,206.48062,442.55276,207.99075C442.02493,208.54993,441.58353,209.08255,441.58078,209.19682C441.5781,209.31108,441.19586,209.75937,440.75653,210.2063C440.28854,210.65259,439.8179,211.21301,439.69882,211.4103C439.6078,211.63681,439.28128,212.14359,438.9861,212.53685C437.8911,214.11147,437.30078,214.89793,437.15454,215.0374C436.94983,215.23253,436.35605,216.16177,435.78818,217.20586C435.51883,217.714,435.01627,218.41673,434.63538,218.80786C434.28372,219.17111,433.8968,219.8193,433.77304,220.21657C433.5547,220.98322,431.35648,223.27498,430.10977,224.01712C429.733,224.23683,429.06433,224.70695,428.6277,225.0396C428.19037,225.40083,427.6693,225.67426,427.49792,225.67017C427.3551,225.6668,426.74634,226.02394,426.22058,226.49744C425.6669,226.94167,425.08612,227.32811,424.94324,227.3247C424.8004,227.32127,424.1597,227.82054,423.54477,228.43483C422.93002,229.0491,422.28925,229.5485,422.175,229.54579C421.91794,229.53966,420.98608,230.2607,419.00204,231.95721C418.27155,232.62596,417.37305,233.14772,417.03024,233.13959C416.6874,233.13144,415.88135,233.36957,415.189,233.63905C414.5245,233.9376,413.1464,234.19078,412.1445,234.25278C411.14255,234.31471,410.19507,234.49231,410.01956,234.65967C409.84406,234.82703,409.1265,234.95294,408.44083,234.93666C407.72665,234.91966,407.00836,235.07419,406.7737,235.32585C406.45273,235.6041,405.73508,235.7299,404.39236,235.69801C402.99255,235.6648,402.33276,235.76347,402.06818,236.07167C401.83282,236.35193,401.20096,236.47986,400.2296,236.4568C398.57266,236.41751,396.61914,236.82852,396.60968,237.22849C396.60562,237.39986,395.80298,237.49521,394.8031,237.47145C393.66034,237.4443,392.79996,237.56674,392.42178,237.84361C392.07285,238.09258,391.15524,238.21376,389.84045,238.21112C388.29776,238.17453,387.7523,238.2759,387.602,238.58679C387.48022,238.89838,386.9347,238.99974,385.27774,238.96045C384.10648,238.93262,383.13232,239.02383,383.12897,239.16669C383.11813,239.6237,381.5659,239.98708,379.88107,239.91844C378.73834,239.89137,378.04935,240.01793,377.69904,240.32407C377.3488,240.6302,376.63113,240.75615,375.31705,240.72493C374.00287,240.69373,373.34308,240.79239,373.07852,241.10059C372.814,241.40868,372.15417,241.50734,370.7829,241.47476C369.41162,241.44223,368.75183,241.54091,368.48727,241.8491C368.2234,242.12866,367.5629,242.25592,366.33447,242.22678C364.93463,242.19356,364.44623,242.29631,364.03546,242.74391C363.5961,243.19078,363.13626,243.29419,361.59357,243.2576C360.2223,243.225,359.5625,243.32368,359.29794,243.6319C359.03406,243.9115,358.3736,244.03876,357.17374,244.01024C356.08743,244.01308,355.227,244.13556,354.87805,244.3846C354.49997,244.66147,353.6395,244.78394,352.52533,244.75749C351.2112,244.72636,350.7228,244.82909,350.5725,245.1398C350.45078,245.45139,349.991,245.55482,348.96255,245.53044C347.59125,245.49786,347.27493,245.5761,345.74115,246.36871C345.30716,246.58711,343.13193,246.70697,339.35962,246.67465C336.21573,246.65718,333.5262,246.76477,333.37997,246.90424C333.20523,247.04301,331.51697,247.1173,329.6029,247.07187C326.86026,247.00677,326.05832,247.07353,325.7645,247.40956C325.55914,247.63333,325.04013,247.82114,324.61166,247.81097C324.04028,247.79744,323.77908,247.96274,323.65466,248.38853C323.53024,248.81433,323.32684,248.95241,323.01593,248.8021C322.7323,248.70966,321.8984,248.91852,321.089,249.2995C320.30817,249.68117,319.5008,249.97646,319.30078,249.9717C318.8152,249.96016,317.16714,250.7499,316.95905,251.088C316.84137,251.22815,316.49582,251.33429,316.12436,251.3255C315.75305,251.31667,315.23267,251.56157,314.96878,251.84119C314.6757,252.1487,313.9247,252.47383,313.2942,252.54466C312.663,252.64397,311.79984,252.88078,311.39447,253.09978C310.96054,253.31818,310.44223,253.47739,310.24228,253.47263C310.01364,253.46724,309.43552,253.73933,308.94174,254.07062C308.01193,254.70595,307.89767,254.70326,300.7291,254.44745C296.73087,254.29541,293.3353,254.04327,293.19583,253.89703C293.0278,253.75012,292.63058,253.62639,292.28778,253.61824C291.9164,253.6094,291.57626,253.487,291.49393,253.34215C291.41098,253.2258,290.0444,252.99327,288.44662,252.86961C286.84888,252.7459,285.42514,252.51204,285.25784,252.33653C285.09048,252.16103,284.094,251.99448,283.03693,251.96936C281.97992,251.94429,281.01132,251.80704,280.92966,251.6336C280.84735,251.48874,280.3059,251.41867,279.76117,251.49156C278.213,251.68346,277.65723,251.01283,278.03665,249.47827C278.1951,248.82457,278.43787,248.23004,278.61,248.2056C278.75415,248.15181,278.89148,247.18326,278.91794,246.06902C278.97836,244.72702,279.14288,243.81621,279.4082,243.47942C279.7319,243.08698,279.8686,242.14694,279.91672,240.11859C279.96555,238.0617,280.10217,237.12163,280.4279,236.64343C280.84146,236.08154,280.9039,234.65381,281.038,226.59613C281.15106,219.42418,281.08902,217.22179,280.8346,217.1013C280.57886,217.03813,280.4815,216.3212,280.5154,214.89279C280.5507,213.40727,280.4527,212.71884,280.1446,212.45427C279.89215,212.24817,279.73563,211.61559,279.75055,210.98715C279.76544,210.3586,279.66818,209.64171,279.53214,209.35263C279.39536,209.09212,279.09738,208.399,278.85312,207.8501C278.60892,207.30121,278.28305,206.57893,278.09055,206.25989C277.92664,205.94153,277.68033,205.47833,277.54294,205.2464C277.4055,205.0145,277.24426,204.58192,277.16534,204.29416C277.05716,204.03435,276.80542,203.79967,276.60556,203.79497C276.37695,203.78952,276.20963,203.61401,276.21503,203.38548C276.2198,203.18547,275.96875,202.92227,275.65652,202.82912C275.34433,202.73593,275.09332,202.4728,275.09943,202.21567C275.1055,201.9585,274.9103,201.75385,274.68173,201.7484C274.45325,201.74301,274.258,201.53822,274.2634,201.3097C274.26883,201.08115,274.07358,200.87639,273.84503,200.87093C273.61646,200.86552,273.42126,200.66083,273.4267,200.43234C273.4321,200.20375,273.23685,199.99904,273.0083,199.99364C272.7798,199.98819,272.5845,199.7835,272.58997,199.55495C272.59537,199.3264,272.42877,199.1223,272.2288,199.11755C272.02878,199.1128,271.24445,198.4367,270.49136,197.64713C269.73907,196.8289,268.95404,196.18135,268.7541,196.17659C268.55408,196.17183,268.3874,195.96785,268.3928,195.73932C268.39822,195.51073,268.17447,195.30539,267.88876,195.2986C267.57455,195.29115,267.12357,195.0232,266.84534,194.70209C266.56708,194.38104,266.00183,194.11038,265.57333,194.10016C265.14484,194.09001,264.6353,193.87791,264.44073,193.64467C264.2462,193.41132,263.87955,193.20253,263.59384,193.19577C263.30817,193.18898,262.94153,192.98015,262.74698,192.74684C262.5524,192.5136,262.04294,192.30138,261.58585,192.29054C261.10022,192.279,260.67642,192.06885,260.5125,191.75046C260.34854,191.43224,259.95325,191.22276,259.58124,191.24251C259.2092,191.26227,258.7283,191.05077,258.50583,190.78821C258.1718,190.40868,257.4039,190.24753,254.92111,190.07423C253.1805,189.94719,251.50037,189.67862,251.1616,189.49904C250.45624,189.11081,244.8582,188.92073,244.278,189.27852 Z"/> </g> </g> </g> </svg>